{"glyphs":{"0":{"ha":767,"x_min":68,"x_max":699,"o":"m 576 316 q 519 180 576 237 q 384 124 463 124 q 267 163 319 124 l 570 701 q 576 657 576 680 l 576 316 m 192 657 q 248 793 192 736 q 384 849 304 849 q 493 815 444 849 l 194 286 q 192 316 192 300 l 192 657 m 699 657 q 607 880 699 788 q 384 973 514 973 q 161 880 253 973 q 68 657 68 788 l 68 316 q 161 93 68 185 q 384 0 253 0 q 607 93 514 0 q 699 316 699 185 l 699 657 z "},"1":{"ha":348,"x_min":68,"x_max":280,"o":"m 68 911 q 86 867 68 886 q 130 849 104 849 l 156 849 l 156 62 q 174 18 156 36 q 218 0 193 0 q 262 18 244 0 q 280 62 280 36 l 280 911 q 262 955 280 937 q 218 973 244 973 l 130 973 q 86 955 104 973 q 68 911 68 937 z "},"2":{"ha":791,"x_min":68,"x_max":723,"o":"m 356 201 q 473 317 433 278 q 499 344 481 326 q 593 442 563 408 q 682 602 665 522 q 655 802 705 707 q 549 919 618 873 q 404 972 482 964 q 245 944 320 980 q 126 842 173 909 q 71 699 81 777 q 83 653 68 673 q 125 629 100 633 q 171 642 151 627 q 194 684 191 658 q 228 771 200 731 q 299 833 256 812 q 391 848 342 853 q 481 816 439 844 q 545 745 523 788 q 561 627 574 689 q 502 525 551 580 q 411 431 473 493 q 385 405 394 414 q 269 288 346 366 l 252 272 q 119 138 183 203 q 87 106 101 120 q 84 103 85 104 q 77 93 80 98 q 68 61 68 78 q 69 52 68 56 q 82 24 72 36 q 92 13 86 18 q 127 0 108 1 l 661 0 q 705 18 687 0 q 723 62 723 36 q 705 106 723 87 q 661 124 687 124 l 279 124 q 339 184 308 153 l 356 201 z "},"3":{"ha":755,"x_min":68,"x_max":687,"o":"m 359 124 q 351 123 355 124 q 342 124 347 124 q 236 168 280 124 q 192 274 192 212 q 174 318 192 300 q 130 336 155 336 q 86 318 104 336 q 68 274 68 300 q 149 81 68 161 q 342 0 229 0 q 351 1 347 0 q 359 0 355 0 l 413 0 q 607 81 526 0 q 687 274 687 161 q 586 486 687 404 q 687 699 687 569 q 607 892 687 812 q 413 973 526 973 l 359 973 q 351 972 355 973 q 342 973 347 973 q 149 892 229 973 q 68 699 68 812 q 86 655 68 673 q 130 637 104 637 q 174 655 155 637 q 192 699 192 673 q 236 805 192 761 q 342 849 280 849 q 351 850 347 849 q 359 849 355 849 l 413 849 q 519 805 475 849 q 563 699 563 761 q 519 593 563 637 q 413 549 475 549 l 359 549 q 316 530 334 549 q 298 486 298 512 q 316 443 298 461 q 359 425 334 425 l 413 425 q 519 380 475 425 q 563 274 563 336 q 519 168 563 212 q 413 124 475 124 l 359 124 z "},"4":{"ha":741,"x_min":68,"x_max":673,"o":"m 612 283 q 655 301 637 283 q 673 345 673 319 q 655 389 673 371 q 612 407 637 407 l 496 407 l 496 469 q 479 513 496 494 q 435 531 460 531 q 391 513 409 531 q 373 469 373 494 l 373 407 l 209 407 l 301 900 q 291 946 306 925 q 252 972 277 967 q 205 962 227 977 q 179 922 184 948 l 73 357 q 86 305 68 328 q 134 283 105 283 l 373 283 l 373 62 q 391 18 373 36 q 435 0 409 0 q 479 18 460 0 q 496 62 496 36 l 496 283 l 612 283 z "},"5":{"ha":684,"x_min":68,"x_max":616,"o":"m 616 292 q 531 498 616 412 q 324 584 445 584 l 192 584 l 192 849 l 520 849 q 564 867 546 849 q 583 911 583 886 q 564 955 583 937 q 520 973 546 973 l 130 973 q 86 955 104 973 q 68 911 68 937 l 68 522 q 86 478 68 496 q 130 460 104 460 l 324 460 q 443 411 394 460 q 492 292 492 361 q 443 173 492 222 q 324 124 394 124 l 130 124 q 86 106 104 124 q 68 62 68 87 q 86 18 68 36 q 130 0 104 0 l 324 0 q 531 85 445 0 q 616 292 616 171 z "},"6":{"ha":720,"x_min":68,"x_max":652,"o":"m 192 292 q 241 411 192 361 q 359 460 290 460 q 479 411 429 460 q 528 292 528 361 q 479 173 528 222 q 359 124 429 124 q 241 173 290 124 q 192 292 192 222 m 652 292 q 566 498 652 412 q 359 584 480 584 q 192 530 267 584 l 192 681 q 241 800 192 751 q 359 849 290 849 q 479 800 429 849 q 528 681 528 751 q 546 637 528 656 q 590 619 564 619 q 633 637 615 619 q 652 681 652 656 q 566 888 652 802 q 359 973 480 973 q 153 888 239 973 q 68 681 68 802 l 68 292 q 153 85 68 171 q 359 0 239 0 q 566 85 480 0 q 652 292 652 171 z "},"7":{"ha":744,"x_min":68,"x_max":676,"o":"m 130 973 q 86 955 104 973 q 68 911 68 937 q 86 867 68 886 q 130 849 104 849 l 522 849 l 266 81 q 269 35 258 57 q 304 3 281 12 q 324 0 315 0 q 383 42 369 0 l 666 892 q 658 947 676 922 q 608 973 639 973 l 130 973 z "},"8":{"ha":759,"x_min":68,"x_max":691,"o":"m 347 549 q 243 590 286 549 q 197 692 199 632 q 238 802 194 755 q 349 849 283 849 l 410 849 q 521 802 475 849 q 562 692 565 755 q 516 590 559 632 q 412 549 473 549 l 347 549 m 562 268 q 516 165 559 207 q 412 124 473 124 l 347 124 q 243 165 286 124 q 197 268 199 207 q 238 377 194 331 q 349 425 283 425 l 410 425 q 521 377 475 425 q 562 268 565 331 m 157 77 q 347 0 237 0 l 412 0 q 602 77 522 0 q 686 262 682 153 q 610 463 691 378 q 585 486 598 475 q 602 501 594 493 q 686 687 682 577 q 610 888 691 803 q 410 973 528 973 l 349 973 q 149 888 231 973 q 73 687 68 803 q 157 501 77 577 q 174 486 165 493 q 149 463 161 475 q 73 262 68 378 q 157 77 77 153 z "},"9":{"ha":720,"x_min":68,"x_max":652,"o":"m 359 513 q 241 562 290 513 q 192 681 192 612 q 241 800 192 751 q 359 849 290 849 q 479 800 429 849 q 528 681 528 751 q 479 562 528 612 q 359 513 429 513 m 528 62 q 546 18 528 36 q 590 0 564 0 q 633 18 615 0 q 652 62 652 36 l 652 681 q 566 888 652 802 q 359 973 480 973 q 153 888 239 973 q 68 681 68 802 q 153 475 68 560 q 359 389 239 389 q 528 443 452 389 l 528 62 z "},"\u0000":{"ha":0,"x_min":0,"x_max":0,"o":""}," ":{"ha":345,"x_min":0,"x_max":0,"o":""},"!":{"ha":260,"x_min":68,"x_max":192,"o":"m 130 124 q 86 106 104 124 q 68 62 68 87 q 86 18 68 37 q 130 0 104 0 q 174 18 155 0 q 192 62 192 37 q 174 106 192 87 q 130 124 155 124 m 130 973 q 86 955 104 973 q 68 911 68 937 l 68 221 q 86 178 68 195 q 130 159 104 159 q 174 178 155 159 q 192 221 192 195 l 192 911 q 174 955 192 937 q 130 973 155 973 z "},"\"":{"ha":348,"x_min":68,"x_max":280,"o":"m 156 926 q 143 957 156 944 q 112 970 130 970 q 81 957 94 970 q 68 926 68 944 l 68 854 q 81 823 68 836 q 112 810 94 810 q 143 823 130 810 q 156 854 156 836 l 156 926 m 192 854 q 205 823 192 836 q 236 810 218 810 q 267 823 254 810 q 280 854 280 836 l 280 926 q 267 957 280 944 q 236 970 254 970 q 205 957 218 970 q 192 926 192 944 l 192 854 z "},"#":{"ha":1002,"x_min":68,"x_max":935,"o":"m 360 389 l 397 584 l 625 584 l 588 389 l 360 389 m 578 1 q 590 0 584 0 q 629 14 612 0 q 650 51 646 28 l 691 265 l 820 265 q 863 283 846 265 q 882 328 882 302 q 863 371 882 353 q 820 389 846 389 l 714 389 l 751 584 l 873 584 q 917 602 899 584 q 935 646 935 620 q 917 690 935 671 q 873 708 899 708 l 774 708 l 810 900 q 800 946 814 925 q 760 972 785 967 q 714 962 735 977 q 688 922 693 948 l 648 708 l 420 708 l 456 900 q 446 946 460 925 q 406 972 432 967 q 360 962 381 977 q 334 922 339 948 l 294 708 l 183 708 q 139 690 157 708 q 121 646 121 671 q 139 602 121 620 q 183 584 157 584 l 271 584 l 234 389 l 130 389 q 86 371 104 389 q 68 328 68 353 q 86 283 68 302 q 130 265 104 265 l 211 265 l 175 73 q 184 27 170 48 q 224 1 199 6 q 236 0 230 0 q 275 14 258 0 q 297 51 292 28 l 337 265 l 565 265 l 529 73 q 538 27 524 48 q 578 1 553 6 z "},"$":{"ha":701,"x_min":68,"x_max":633,"o":"m 413 741 q 481 712 453 741 q 509 644 509 684 q 527 601 509 618 q 571 583 545 583 q 614 601 597 583 q 633 644 633 618 q 570 799 633 734 q 416 864 506 863 l 416 911 q 398 955 416 937 q 355 973 380 973 q 311 955 329 973 q 292 911 292 937 l 292 864 l 288 864 q 132 800 197 864 q 68 644 68 735 q 132 489 68 553 q 288 425 197 425 l 413 425 q 481 397 453 425 q 509 329 509 368 q 481 261 509 289 q 413 233 453 233 l 288 233 q 220 261 248 233 q 192 329 192 289 q 174 372 192 355 q 130 391 155 391 q 86 372 104 391 q 68 329 68 355 q 132 174 68 238 q 288 109 197 109 l 292 109 l 292 62 q 311 18 292 36 q 355 0 329 0 q 398 18 380 0 q 416 62 416 36 l 416 109 q 570 174 506 111 q 633 329 633 239 q 568 484 633 420 q 413 549 504 549 l 288 549 q 220 576 248 549 q 192 644 192 605 q 220 712 192 684 q 288 741 248 741 l 413 741 z "},"%":{"ha":801,"x_min":68,"x_max":733,"o":"m 190 531 q 166 541 176 531 q 156 564 156 551 q 166 588 156 578 q 190 598 176 598 q 214 588 204 598 q 224 564 224 578 q 214 541 224 551 q 190 531 204 531 m 312 564 q 276 650 312 615 q 190 686 240 686 q 104 650 140 686 q 68 564 68 615 q 104 478 68 514 q 190 442 140 442 q 276 478 240 442 q 312 564 312 514 m 577 427 q 587 450 577 440 q 611 460 597 460 q 635 450 625 460 q 644 427 644 440 q 635 403 644 412 q 611 393 625 393 q 587 403 597 393 q 577 427 577 412 m 733 427 q 697 513 733 477 q 611 549 661 549 q 525 513 560 549 q 489 427 489 477 q 525 340 489 376 q 611 304 560 304 q 697 340 661 304 q 733 427 733 376 m 309 1 q 321 0 315 0 q 360 14 343 0 q 382 51 378 28 l 541 900 q 531 946 546 925 q 492 972 517 967 q 445 962 467 977 q 419 922 424 948 l 260 73 q 270 27 255 48 q 309 1 284 6 z "},"&":{"ha":844,"x_min":68,"x_max":776,"o":"m 371 0 q 570 78 485 1 q 667 265 654 154 l 713 265 q 758 283 739 265 q 776 328 776 302 q 758 371 776 353 q 713 389 739 389 l 501 389 q 458 371 475 389 q 439 328 439 353 q 458 283 439 302 q 501 265 475 265 l 542 265 q 481 165 529 205 q 369 124 432 124 q 243 176 296 124 q 192 302 192 229 q 243 427 192 375 q 370 479 296 479 l 389 479 q 433 498 415 479 q 452 541 452 515 q 433 585 452 567 q 389 604 415 604 l 354 604 q 267 639 303 604 q 232 726 232 675 q 267 812 232 777 q 354 848 303 848 l 370 848 q 456 812 420 848 q 492 726 492 777 q 511 682 492 700 q 554 664 529 664 q 598 682 580 664 q 616 726 616 700 q 544 900 616 827 q 370 972 472 972 l 354 972 q 180 900 252 972 q 108 726 108 827 q 189 543 108 616 q 68 302 68 452 q 155 90 68 178 q 366 0 242 1 l 371 0 z "},"'":{"ha":224,"x_min":68,"x_max":156,"o":"m 156 926 q 143 957 156 944 q 112 970 130 970 q 81 957 94 970 q 68 926 68 944 l 68 854 q 81 823 68 836 q 112 810 94 810 q 143 823 130 810 q 156 854 156 836 l 156 926 z "},"(":{"ha":486,"x_min":68,"x_max":418,"o":"m 401 -14 q 192 490 192 194 q 401 994 192 786 q 418 1038 418 1013 q 401 1082 418 1064 q 357 1100 382 1100 q 313 1082 331 1100 q 129 805 193 962 q 68 490 68 654 q 129 175 68 326 q 313 -102 193 18 q 357 -120 331 -120 q 401 -102 382 -120 q 418 -58 418 -84 q 401 -14 418 -33 z "},")":{"ha":486,"x_min":68,"x_max":418,"o":"m 86 -104 q 130 -122 104 -122 q 174 -104 155 -122 q 357 173 294 16 q 418 488 418 324 q 357 803 418 652 q 174 1080 294 960 q 130 1098 155 1098 q 86 1080 104 1098 q 68 1036 68 1062 q 86 992 68 1010 q 295 488 295 783 q 86 -16 295 193 q 68 -60 68 -35 q 86 -104 68 -86 z "},"*":{"ha":300,"x_min":68,"x_max":232,"o":"m 132 812 q 150 793 132 793 q 169 812 169 793 l 169 845 l 196 827 q 206 823 201 823 q 222 832 216 823 q 216 858 232 848 l 184 880 l 216 902 q 222 928 232 912 q 196 933 212 943 l 169 915 l 169 947 q 150 966 169 966 q 132 947 132 966 l 132 915 l 104 933 q 78 928 88 943 q 83 902 68 912 l 116 880 l 83 858 q 78 832 68 848 q 94 823 83 823 q 104 827 99 823 l 132 845 l 132 812 z "},"+":{"ha":560,"x_min":68,"x_max":492,"o":"m 342 420 l 431 420 q 474 439 456 420 q 492 482 492 456 q 474 526 492 508 q 431 544 456 544 l 342 544 l 342 633 q 324 676 342 659 q 280 694 306 694 q 236 676 254 694 q 218 633 218 659 l 218 544 l 130 544 q 86 526 104 544 q 68 482 68 508 q 86 439 68 456 q 130 420 104 420 l 218 420 l 218 332 q 236 288 218 306 q 280 270 254 270 q 324 288 306 270 q 342 332 342 306 l 342 420 z "},",":{"ha":260,"x_min":68,"x_max":192,"o":"m 130 124 q 86 106 104 124 q 68 62 68 87 l 68 -42 q 86 -85 68 -68 q 130 -104 104 -104 q 174 -85 155 -104 q 192 -42 192 -68 l 192 62 q 174 106 192 87 q 130 124 155 124 z "},"-":{"ha":560,"x_min":68,"x_max":492,"o":"m 492 485 q 474 529 492 511 q 431 547 456 547 l 130 547 q 86 529 104 547 q 68 485 68 511 q 86 441 68 459 q 130 423 104 423 l 431 423 q 474 441 456 423 q 492 485 492 459 z "},".":{"ha":260,"x_min":68,"x_max":192,"o":"m 86 106 q 68 62 68 87 q 86 18 68 37 q 130 0 104 0 q 174 18 155 0 q 192 62 192 37 q 174 106 192 87 q 130 124 155 124 q 86 106 104 124 z "},"/":{"ha":426,"x_min":68,"x_max":358,"o":"m 304 972 q 258 962 279 977 q 232 922 236 948 l 73 73 q 82 27 68 48 q 122 1 96 6 q 134 0 127 0 q 172 14 155 0 q 194 50 190 28 l 353 900 q 344 946 358 925 q 304 972 329 967 z "},":":{"ha":260,"x_min":68,"x_max":192,"o":"m 130 124 q 86 106 104 124 q 68 62 68 87 q 86 18 68 37 q 130 0 104 0 q 174 18 155 0 q 192 62 192 37 q 174 106 192 87 q 130 124 155 124 m 130 549 q 86 530 104 549 q 68 486 68 512 q 86 443 68 461 q 130 425 104 425 q 174 443 155 425 q 192 486 192 461 q 174 530 192 512 q 130 549 155 549 z "},";":{"ha":260,"x_min":68,"x_max":192,"o":"m 130 557 q 86 539 104 557 q 68 495 68 521 q 86 452 68 470 q 130 433 104 433 q 174 452 155 433 q 192 495 192 470 q 174 539 192 521 q 130 557 155 557 m 130 123 q 86 104 104 123 q 68 61 68 86 l 68 -43 q 86 -87 68 -69 q 130 -105 104 -105 q 174 -87 155 -105 q 192 -43 192 -69 l 192 61 q 174 104 192 86 q 130 123 155 123 z "},"<":{"ha":437,"x_min":68,"x_max":370,"o":"m 353 684 q 310 705 336 703 q 265 689 284 706 l 88 530 q 68 484 68 511 q 88 437 68 456 l 265 278 q 307 262 283 262 q 353 283 334 262 q 368 328 370 302 q 348 370 367 353 l 222 484 l 348 597 q 368 640 367 614 q 353 684 370 665 z "},"=":{"ha":560,"x_min":68,"x_max":492,"o":"m 130 655 q 86 637 104 655 q 68 593 68 618 q 86 549 68 568 q 130 531 104 531 l 431 531 q 474 549 456 531 q 492 593 492 568 q 474 637 492 618 q 431 655 456 655 l 130 655 m 130 443 q 86 425 104 443 q 68 380 68 406 q 86 337 68 355 q 130 319 104 319 l 431 319 q 474 337 456 319 q 492 380 492 355 q 474 425 492 406 q 431 443 456 443 l 130 443 z "},">":{"ha":438,"x_min":68,"x_max":370,"o":"m 85 684 q 69 640 68 665 q 90 597 71 614 l 216 484 l 90 370 q 69 328 71 353 q 85 283 68 302 q 131 262 104 262 q 172 278 155 262 l 349 437 q 370 484 370 456 q 349 530 370 511 l 172 689 q 128 705 153 706 q 85 684 102 703 z "},"?":{"ha":720,"x_min":68,"x_max":652,"o":"m 652 681 q 566 888 652 802 q 359 973 480 973 q 153 888 239 973 q 68 681 68 802 q 86 637 68 656 q 130 619 104 619 q 174 637 155 619 q 192 681 192 656 q 241 800 192 751 q 359 849 290 849 q 479 800 429 849 q 528 681 528 751 q 479 562 528 612 q 359 513 429 513 q 316 495 334 513 q 298 451 298 477 l 298 221 q 316 178 298 195 q 359 159 334 159 q 404 178 385 159 q 422 221 422 195 l 422 396 q 586 497 521 417 q 652 681 652 577 m 359 124 q 316 106 334 124 q 298 62 298 87 q 316 18 298 37 q 359 0 334 0 q 404 18 385 0 q 422 62 422 37 q 404 106 422 87 q 359 124 385 124 z "},"@":{"ha":1111,"x_min":68,"x_max":1043,"o":"m 424 488 q 463 583 424 543 q 557 621 502 621 q 650 583 612 621 q 689 488 689 543 q 650 395 689 433 q 557 356 612 356 q 463 395 502 356 q 424 488 424 433 m 1043 471 q 1043 477 1043 476 l 1043 488 q 901 833 1043 690 q 557 975 758 975 q 212 833 355 975 q 70 489 71 690 q 102 315 68 403 q 114 287 107 301 q 182 177 140 227 q 187 172 184 176 q 188 172 187 172 q 188 171 188 171 q 209 148 199 159 q 374 36 281 74 q 557 0 462 0 q 691 20 627 0 q 727 51 715 28 q 731 98 739 73 q 701 134 724 122 q 654 138 678 146 q 420 151 540 102 q 302 229 355 177 q 300 232 301 231 q 288 244 294 238 q 286 247 286 248 q 285 248 288 245 q 243 306 261 275 q 197 533 182 412 q 300 745 212 657 q 557 851 406 851 q 813 745 707 851 q 907 583 882 677 q 909 402 931 493 q 853 279 892 336 l 777 356 q 813 488 813 417 q 738 670 813 595 q 557 745 663 745 q 375 670 450 745 q 300 488 300 595 q 375 307 300 382 q 557 232 450 232 q 689 269 628 232 l 813 144 q 857 126 831 126 q 901 144 882 126 q 929 176 916 159 q 929 176 929 176 q 1042 467 1036 302 q 1043 471 1042 465 z "},"A":{"ha":1016,"x_min":68,"x_max":948,"o":"m 930 28 q 935 87 948 56 l 563 936 q 506 973 547 973 q 450 936 466 973 l 78 87 q 77 39 68 63 q 110 5 86 16 q 135 0 122 0 q 191 37 175 0 l 506 757 l 783 124 l 418 124 q 374 106 392 124 q 356 62 356 87 q 374 18 356 37 q 418 0 392 0 l 878 0 q 930 28 911 0 z "},"B":{"ha":879,"x_min":68,"x_max":811,"o":"m 192 425 l 536 425 q 643 380 599 425 q 687 274 687 336 q 643 168 687 212 q 536 124 599 124 l 192 124 l 192 425 m 192 849 l 466 849 q 572 805 528 849 q 616 699 616 761 q 572 593 616 637 q 466 549 528 549 l 192 549 l 192 849 m 536 0 q 730 81 650 0 q 811 274 811 161 q 772 416 811 351 q 669 515 733 479 q 740 699 740 593 q 660 892 740 812 q 466 973 579 973 l 130 973 q 86 955 104 973 q 68 911 68 937 l 68 62 q 86 18 68 36 q 130 0 104 0 l 536 0 z "},"C":{"ha":985,"x_min":68,"x_max":917,"o":"m 554 0 q 899 142 756 0 q 917 186 917 161 q 899 230 917 212 q 854 248 880 248 q 811 230 829 248 q 554 124 705 124 q 298 230 404 124 q 192 486 192 336 q 298 743 192 637 q 554 849 404 849 q 811 743 705 849 q 854 725 829 725 q 899 743 880 725 q 917 787 917 761 q 899 831 917 812 q 554 973 756 973 q 210 831 353 973 q 68 486 68 688 q 210 142 68 285 q 554 0 353 0 z "},"D":{"ha":897,"x_min":68,"x_max":829,"o":"m 829 486 q 686 831 829 688 q 342 973 544 973 l 130 973 q 86 955 104 973 q 68 911 68 937 q 86 867 68 886 q 130 849 104 849 l 342 849 q 598 743 492 849 q 705 486 705 637 q 598 230 705 336 q 342 124 492 124 l 130 124 q 86 106 104 124 q 68 62 68 87 q 86 18 68 36 q 130 0 104 0 l 342 0 q 686 142 544 0 q 829 486 829 285 z "},"E":{"ha":844,"x_min":68,"x_max":776,"o":"m 776 62 q 758 106 776 87 q 713 124 739 124 l 130 124 q 86 106 104 124 q 68 62 68 87 q 86 18 68 36 q 130 0 104 0 l 713 0 q 758 18 739 0 q 776 62 776 36 m 130 973 q 86 955 104 973 q 68 911 68 937 q 86 867 68 886 q 130 849 104 849 l 713 849 q 758 867 739 849 q 776 911 776 886 q 758 955 776 937 q 713 973 739 973 l 130 973 m 130 549 q 86 530 104 549 q 68 486 68 512 q 86 443 68 461 q 130 425 104 425 l 713 425 q 758 443 739 425 q 776 486 776 461 q 758 530 776 512 q 713 549 739 549 l 130 549 z "},"F":{"ha":844,"x_min":68,"x_max":776,"o":"m 130 0 q 174 18 155 0 q 192 62 192 36 l 192 425 l 572 425 q 616 443 597 425 q 634 486 634 461 q 616 530 634 512 q 572 549 597 549 l 192 549 l 192 849 l 713 849 q 758 867 739 849 q 776 911 776 886 q 758 955 776 937 q 713 973 739 973 l 130 973 q 86 955 104 973 q 68 911 68 937 l 68 62 q 86 18 68 36 q 130 0 104 0 z "},"G":{"ha":984,"x_min":68,"x_max":916,"o":"m 210 142 q 554 0 353 0 q 899 142 756 0 q 916 186 916 161 l 916 486 q 899 530 916 512 q 854 549 880 549 l 536 549 q 493 530 511 549 q 475 486 475 512 q 493 443 475 461 q 536 425 511 425 l 793 425 l 793 213 q 543 124 686 119 q 298 230 399 129 q 192 486 192 336 q 298 743 192 637 q 554 849 404 849 q 811 743 705 849 q 854 725 829 725 q 899 743 880 725 q 916 787 916 761 q 899 831 916 812 q 554 973 756 973 q 210 831 353 973 q 68 486 68 688 q 210 142 68 285 z "},"H":{"ha":879,"x_min":68,"x_max":811,"o":"m 130 0 q 174 18 155 0 q 192 62 192 36 l 192 425 l 687 425 l 687 62 q 705 18 687 36 q 749 0 724 0 q 793 18 774 0 q 811 62 811 36 l 811 911 q 793 955 811 937 q 749 973 774 973 q 705 955 724 973 q 687 911 687 937 l 687 549 l 192 549 l 192 911 q 174 955 192 937 q 130 973 155 973 q 86 955 104 973 q 68 911 68 937 l 68 62 q 86 18 68 36 q 130 0 104 0 z "},"I":{"ha":260,"x_min":68,"x_max":192,"o":"m 130 0 q 174 18 155 0 q 192 62 192 36 l 192 911 q 174 955 192 937 q 130 973 155 973 q 86 955 104 973 q 68 911 68 937 l 68 62 q 86 18 68 36 q 130 0 104 0 z "},"J":{"ha":560,"x_min":68,"x_max":492,"o":"m 130 0 q 386 106 279 0 q 492 363 492 213 l 492 911 q 474 955 492 937 q 431 973 456 973 q 387 955 405 973 q 369 911 369 937 l 369 363 q 298 194 369 264 q 130 124 229 124 q 86 106 104 124 q 68 62 68 87 q 86 18 68 36 q 130 0 104 0 z "},"K":{"ha":827,"x_min":68,"x_max":759,"o":"m 68 62 q 86 18 68 36 q 130 0 104 0 q 174 18 155 0 q 192 62 192 36 l 192 371 l 265 437 l 650 20 q 696 0 669 0 q 738 16 720 0 q 758 60 757 34 q 741 104 759 85 l 357 520 l 737 865 q 758 908 756 882 q 742 953 759 934 q 699 973 724 972 q 654 957 673 975 l 192 538 l 192 911 q 174 955 192 937 q 130 973 155 973 q 86 955 104 973 q 68 911 68 937 l 68 62 z "},"L":{"ha":861,"x_min":68,"x_max":793,"o":"m 731 0 q 775 18 757 0 q 793 62 793 36 q 775 106 793 87 q 731 124 757 124 l 192 124 l 192 911 q 174 955 192 937 q 130 973 155 973 q 86 955 104 973 q 68 911 68 937 l 68 62 q 86 18 68 36 q 130 0 104 0 l 731 0 z "},"M":{"ha":1038,"x_min":68,"x_max":970,"o":"m 130 0 q 174 18 155 0 q 192 62 192 36 l 192 717 l 469 327 q 519 301 487 301 q 570 327 551 301 l 846 717 l 846 62 q 865 18 846 36 q 908 0 882 0 q 952 18 934 0 q 970 62 970 36 l 970 911 q 927 970 970 956 q 858 947 884 984 l 519 470 l 180 947 q 111 970 154 984 q 68 911 68 956 l 68 62 q 86 18 68 36 q 130 0 104 0 z "},"N":{"ha":914,"x_min":68,"x_max":846,"o":"m 130 0 q 174 18 155 0 q 192 62 192 36 l 192 730 l 735 24 q 785 0 754 0 q 804 3 795 0 q 846 62 846 18 l 846 911 q 828 955 846 937 q 785 973 810 973 q 741 955 759 973 q 722 911 722 937 l 722 243 l 179 949 q 110 970 152 984 q 68 911 68 956 l 68 62 q 86 18 68 36 q 130 0 104 0 z "},"O":{"ha":1109,"x_min":68,"x_max":1041,"o":"m 554 849 q 810 743 705 849 q 917 486 917 637 q 810 230 917 336 q 554 124 705 124 q 298 230 404 124 q 192 486 192 336 q 298 743 192 637 q 554 849 404 849 m 554 0 q 899 142 756 0 q 1041 486 1041 285 q 899 831 1041 688 q 554 973 756 973 q 210 831 353 973 q 68 486 68 688 q 210 142 68 285 q 554 0 353 0 z "},"P":{"ha":844,"x_min":68,"x_max":776,"o":"m 458 849 q 595 793 538 849 q 652 656 652 736 q 595 519 652 576 q 458 463 538 463 l 130 463 q 86 444 104 463 q 68 400 68 426 l 68 62 q 86 18 68 36 q 130 0 104 0 q 174 18 155 0 q 192 62 192 36 l 192 338 l 458 338 q 682 431 589 338 q 776 656 776 524 q 682 880 776 787 q 458 973 589 973 l 130 973 q 86 955 104 973 q 68 911 68 937 q 86 867 68 886 q 130 849 104 849 l 458 849 z "},"Q":{"ha":1109,"x_min":68,"x_max":1041,"o":"m 616 186 q 598 230 616 212 q 554 248 580 248 q 511 230 529 248 q 492 186 492 212 l 492 130 q 278 252 363 152 q 192 487 192 354 q 298 743 192 637 q 554 850 404 850 q 810 743 705 850 q 917 487 917 637 q 831 252 917 354 q 616 130 745 152 l 616 186 m 554 974 q 210 831 353 974 q 68 487 68 688 q 210 143 68 286 q 492 4 328 25 l 492 -62 q 511 -105 492 -87 q 554 -123 529 -123 q 598 -105 580 -123 q 616 -62 616 -87 l 616 4 q 899 143 781 25 q 1041 487 1041 286 q 899 831 1041 688 q 554 974 756 974 z "},"R":{"ha":852,"x_min":68,"x_max":785,"o":"m 130 0 q 174 18 155 0 q 192 62 192 36 l 192 338 l 382 338 l 676 20 q 722 0 694 0 q 764 16 746 0 q 784 60 783 34 q 767 104 785 85 l 541 350 q 707 462 642 378 q 774 656 774 547 q 681 880 774 787 q 456 973 588 973 l 130 973 q 86 955 104 973 q 68 911 68 937 q 86 867 68 886 q 130 849 104 849 l 456 849 q 593 793 536 849 q 650 656 650 736 q 593 519 650 576 q 456 463 536 463 l 130 463 q 86 444 104 463 q 68 400 68 426 l 68 62 q 86 18 68 36 q 130 0 104 0 z "},"S":{"ha":853,"x_min":68,"x_max":785,"o":"m 342 124 q 236 168 280 124 q 192 274 192 212 q 174 318 192 300 q 130 336 155 336 q 86 318 104 336 q 68 274 68 300 q 149 81 68 161 q 342 0 229 0 l 511 0 q 705 81 624 0 q 785 274 785 161 q 705 468 785 388 q 511 549 624 549 l 342 549 q 236 593 280 549 q 192 699 192 637 q 236 805 192 761 q 342 849 280 849 l 511 849 q 617 805 573 849 q 661 699 661 761 q 680 655 661 673 q 723 637 697 637 q 767 655 749 637 q 785 699 785 673 q 705 892 785 812 q 511 973 624 973 l 342 973 q 149 892 229 973 q 68 699 68 812 q 149 505 68 585 q 342 425 229 425 l 511 425 q 617 380 573 425 q 661 274 661 336 q 617 168 661 212 q 511 124 573 124 l 342 124 z "},"T":{"ha":914,"x_min":68,"x_max":846,"o":"m 395 849 l 395 62 q 413 18 395 36 q 457 0 431 0 q 501 18 483 0 q 519 62 519 36 l 519 849 l 785 849 q 828 867 810 849 q 846 911 846 886 q 828 955 846 937 q 785 973 810 973 l 130 973 q 86 955 104 973 q 68 911 68 937 q 86 867 68 886 q 130 849 104 849 l 395 849 z "},"U":{"ha":879,"x_min":68,"x_max":811,"o":"m 439 0 q 702 109 593 0 q 811 372 811 218 l 811 911 q 793 955 811 937 q 749 973 774 973 q 705 955 724 973 q 687 911 687 937 l 687 372 q 614 197 687 269 q 439 124 542 124 q 264 197 337 124 q 192 372 192 269 l 192 911 q 174 955 192 937 q 130 973 155 973 q 86 955 104 973 q 68 911 68 937 l 68 372 q 177 109 68 218 q 439 0 286 0 z "},"V":{"ha":1013,"x_min":68,"x_max":945,"o":"m 450 37 q 506 0 466 0 q 563 37 547 0 l 935 886 q 935 934 945 910 q 903 968 926 958 q 855 969 879 978 q 821 936 831 960 l 506 216 l 191 936 q 157 969 181 960 q 110 968 134 978 q 77 934 86 958 q 78 886 68 910 l 450 37 z "},"W":{"ha":1367,"x_min":68,"x_max":1299,"o":"m 450 37 q 506 0 466 0 q 563 37 547 0 l 680 306 l 804 36 q 860 0 821 0 l 861 0 q 917 37 901 1 l 1289 886 q 1289 934 1299 910 q 1257 968 1280 958 q 1209 969 1233 978 q 1175 936 1185 960 l 859 213 l 735 482 q 679 519 718 518 q 621 481 637 519 l 506 217 l 191 936 q 157 969 181 960 q 110 968 134 978 q 77 934 86 958 q 78 886 68 910 l 450 37 z "},"X":{"ha":920,"x_min":68,"x_max":852,"o":"m 95 13 q 132 0 111 0 q 182 24 163 0 l 460 385 l 738 24 q 787 0 757 0 q 825 13 808 0 q 848 54 845 28 q 836 100 852 79 l 538 486 l 836 873 q 848 919 852 894 q 825 960 845 945 q 779 972 804 976 q 738 949 753 969 l 460 588 l 182 949 q 140 972 166 969 q 95 960 115 976 q 71 919 75 945 q 83 873 68 894 l 382 486 l 83 100 q 71 54 68 79 q 95 13 75 28 z "},"Y":{"ha":940,"x_min":68,"x_max":872,"o":"m 408 362 l 408 62 q 427 18 408 36 q 470 0 444 0 q 514 18 496 0 q 532 62 532 36 l 532 362 l 859 878 q 867 925 872 900 q 840 964 861 949 q 793 972 818 977 q 754 944 768 966 l 470 496 l 186 944 q 147 972 172 966 q 101 964 123 977 q 73 925 79 949 q 81 878 68 900 l 408 362 z "},"Z":{"ha":899,"x_min":68,"x_max":831,"o":"m 760 0 q 803 18 785 0 q 821 62 821 36 q 803 106 821 87 q 760 124 785 124 l 262 124 l 809 875 q 814 939 831 905 q 760 973 798 973 l 140 973 q 96 955 115 973 q 78 911 78 937 q 96 867 78 886 q 140 849 115 849 l 637 849 l 90 98 q 85 34 68 68 q 140 0 102 0 l 760 0 z "},"[":{"ha":418,"x_min":68,"x_max":351,"o":"m 289 1011 q 333 1029 315 1011 q 351 1073 351 1047 q 333 1117 351 1099 q 289 1135 315 1135 l 130 1135 q 86 1117 104 1135 q 68 1073 68 1099 l 68 -95 q 86 -138 68 -121 q 130 -157 104 -157 l 289 -157 q 333 -138 315 -157 q 351 -95 351 -121 q 333 -51 351 -69 q 289 -33 315 -33 l 192 -33 l 192 1011 l 289 1011 z "},"]":{"ha":418,"x_min":68,"x_max":351,"o":"m 351 1073 q 333 1117 351 1099 q 289 1135 315 1135 l 130 1135 q 86 1117 104 1135 q 68 1073 68 1099 q 86 1029 68 1047 q 130 1011 104 1011 l 227 1011 l 227 -33 l 130 -33 q 86 -51 104 -33 q 68 -95 68 -69 q 86 -138 68 -121 q 130 -157 104 -157 l 289 -157 q 333 -138 315 -157 q 351 -95 351 -121 l 351 1073 z "},"_":{"ha":560,"x_min":68,"x_max":492,"o":"m 492 62 q 474 106 492 87 q 431 124 456 124 l 130 124 q 86 106 104 124 q 68 62 68 87 q 86 18 68 36 q 130 0 104 0 l 431 0 q 474 18 456 0 q 492 62 492 36 z "},"`":{"ha":224,"x_min":68,"x_max":156,"o":"m 156 926 q 143 957 156 944 q 112 970 130 970 q 81 957 94 970 q 68 926 68 944 l 68 854 q 81 823 68 836 q 112 810 94 810 q 143 823 130 810 q 156 854 156 836 l 156 926 z "},"a":{"ha":1013,"x_min":68,"x_max":945,"o":"m 353 407 l 506 757 l 659 407 l 353 407 m 563 936 q 506 973 547 973 q 450 936 466 973 l 78 87 q 77 39 68 64 q 110 5 86 16 q 157 5 134 -5 q 191 37 181 14 l 299 283 l 713 283 l 821 37 q 878 0 838 0 q 903 5 890 0 q 935 39 926 16 q 935 87 945 64 l 563 936 z "},"b":{"ha":879,"x_min":68,"x_max":811,"o":"m 192 425 l 536 425 q 643 380 599 425 q 687 274 687 336 q 643 168 687 212 q 536 124 599 124 l 192 124 l 192 425 m 192 849 l 466 849 q 572 805 528 849 q 616 699 616 761 q 572 593 616 637 q 466 549 528 549 l 192 549 l 192 849 m 536 0 q 730 81 650 0 q 811 274 811 161 q 772 416 811 351 q 669 515 733 479 q 740 699 740 593 q 660 892 740 812 q 466 973 579 973 l 130 973 q 86 955 104 973 q 68 911 68 937 l 68 62 q 86 18 68 36 q 130 0 104 0 l 536 0 z "},"c":{"ha":985,"x_min":68,"x_max":917,"o":"m 554 0 q 899 142 756 0 q 917 186 917 161 q 899 230 917 212 q 854 248 880 248 q 811 230 829 248 q 554 124 705 124 q 298 230 404 124 q 192 486 192 336 q 298 743 192 637 q 554 849 404 849 q 811 743 705 849 q 854 725 829 725 q 899 743 880 725 q 917 787 917 761 q 899 831 917 812 q 554 973 756 973 q 210 831 353 973 q 68 486 68 688 q 210 142 68 285 q 554 0 353 0 z "},"d":{"ha":897,"x_min":68,"x_max":829,"o":"m 192 849 l 342 849 q 598 743 492 849 q 705 486 705 637 q 598 230 705 336 q 342 124 492 124 l 192 124 l 192 849 m 342 0 q 686 142 544 0 q 829 486 829 285 q 686 831 829 688 q 342 973 544 973 l 130 973 q 86 955 104 973 q 68 911 68 937 l 68 62 q 86 18 68 36 q 130 0 104 0 l 342 0 z "},"e":{"ha":844,"x_min":68,"x_max":776,"o":"m 713 0 q 758 18 739 0 q 776 62 776 36 q 758 106 776 87 q 713 124 739 124 l 192 124 l 192 425 l 572 425 q 616 443 597 425 q 634 486 634 461 q 616 530 634 512 q 572 549 597 549 l 192 549 l 192 849 l 713 849 q 758 867 739 849 q 776 911 776 886 q 758 955 776 937 q 713 973 739 973 l 130 973 q 86 955 104 973 q 68 911 68 937 l 68 62 q 86 18 68 36 q 130 0 104 0 l 713 0 z "},"f":{"ha":844,"x_min":68,"x_max":776,"o":"m 130 0 q 174 18 155 0 q 192 62 192 36 l 192 425 l 572 425 q 616 443 597 425 q 634 486 634 461 q 616 530 634 512 q 572 549 597 549 l 192 549 l 192 849 l 713 849 q 758 867 739 849 q 776 911 776 886 q 758 955 776 937 q 713 973 739 973 l 130 973 q 86 955 104 973 q 68 911 68 937 l 68 62 q 86 18 68 36 q 130 0 104 0 z "},"g":{"ha":984,"x_min":68,"x_max":916,"o":"m 210 142 q 554 0 353 0 q 899 142 756 0 q 916 186 916 161 l 916 486 q 899 530 916 512 q 854 549 880 549 l 536 549 q 493 530 511 549 q 475 486 475 512 q 493 443 475 461 q 536 425 511 425 l 793 425 l 793 213 q 543 124 686 119 q 298 230 399 129 q 192 486 192 336 q 298 743 192 637 q 554 849 404 849 q 811 743 705 849 q 854 725 829 725 q 899 743 880 725 q 916 787 916 761 q 899 831 916 812 q 554 973 756 973 q 210 831 353 973 q 68 486 68 688 q 210 142 68 285 z "},"h":{"ha":879,"x_min":68,"x_max":811,"o":"m 130 0 q 174 18 155 0 q 192 62 192 36 l 192 425 l 687 425 l 687 62 q 705 18 687 36 q 749 0 724 0 q 793 18 774 0 q 811 62 811 36 l 811 911 q 793 955 811 937 q 749 973 774 973 q 705 955 724 973 q 687 911 687 937 l 687 549 l 192 549 l 192 911 q 174 955 192 937 q 130 973 155 973 q 86 955 104 973 q 68 911 68 937 l 68 62 q 86 18 68 36 q 130 0 104 0 z "},"i":{"ha":260,"x_min":68,"x_max":192,"o":"m 130 0 q 174 18 155 0 q 192 62 192 36 l 192 911 q 174 955 192 937 q 130 973 155 973 q 86 955 104 973 q 68 911 68 937 l 68 62 q 86 18 68 36 q 130 0 104 0 z "},"j":{"ha":560,"x_min":68,"x_max":492,"o":"m 130 0 q 386 106 279 0 q 492 363 492 213 l 492 911 q 474 955 492 937 q 431 973 456 973 q 387 955 405 973 q 369 911 369 937 l 369 363 q 298 194 369 264 q 130 124 229 124 q 86 106 104 124 q 68 62 68 87 q 86 18 68 36 q 130 0 104 0 z "},"k":{"ha":827,"x_min":68,"x_max":759,"o":"m 68 62 q 86 18 68 36 q 130 0 104 0 q 174 18 155 0 q 192 62 192 36 l 192 371 l 265 437 l 650 20 q 696 0 669 0 q 738 16 720 0 q 758 60 757 34 q 741 104 759 85 l 357 520 l 737 865 q 758 908 756 882 q 742 953 759 934 q 699 973 724 972 q 654 957 673 975 l 192 538 l 192 911 q 174 955 192 937 q 130 973 155 973 q 86 955 104 973 q 68 911 68 937 l 68 62 z "},"l":{"ha":861,"x_min":68,"x_max":793,"o":"m 731 0 q 775 18 757 0 q 793 62 793 36 q 775 106 793 87 q 731 124 757 124 l 192 124 l 192 911 q 174 955 192 937 q 130 973 155 973 q 86 955 104 973 q 68 911 68 937 l 68 62 q 86 18 68 36 q 130 0 104 0 l 731 0 z "},"m":{"ha":1038,"x_min":68,"x_max":970,"o":"m 130 0 q 174 18 155 0 q 192 62 192 36 l 192 717 l 469 327 q 519 301 487 301 q 570 327 551 301 l 846 717 l 846 62 q 865 18 846 36 q 908 0 882 0 q 952 18 934 0 q 970 62 970 36 l 970 911 q 927 970 970 956 q 858 947 884 984 l 519 470 l 180 947 q 111 970 154 984 q 68 911 68 956 l 68 62 q 86 18 68 36 q 130 0 104 0 z "},"n":{"ha":914,"x_min":68,"x_max":846,"o":"m 130 0 q 174 18 155 0 q 192 62 192 36 l 192 730 l 735 24 q 785 0 754 0 q 804 3 795 0 q 846 62 846 18 l 846 911 q 828 955 846 937 q 785 973 810 973 q 741 955 759 973 q 722 911 722 937 l 722 243 l 179 949 q 110 970 152 984 q 68 911 68 956 l 68 62 q 86 18 68 36 q 130 0 104 0 z "},"o":{"ha":1109,"x_min":68,"x_max":1041,"o":"m 554 849 q 810 743 705 849 q 917 486 917 637 q 810 230 917 336 q 554 124 705 124 q 298 230 404 124 q 192 486 192 336 q 298 743 192 637 q 554 849 404 849 m 554 0 q 899 142 756 0 q 1041 486 1041 285 q 899 831 1041 688 q 554 973 756 973 q 210 831 353 973 q 68 486 68 688 q 210 142 68 285 q 554 0 353 0 z "},"p":{"ha":844,"x_min":68,"x_max":776,"o":"m 652 656 q 595 519 652 576 q 458 463 538 463 l 192 463 l 192 849 l 458 849 q 595 793 538 849 q 652 656 652 736 m 192 338 l 458 338 q 682 431 589 338 q 776 656 776 524 q 682 880 776 787 q 458 973 589 973 l 130 973 q 86 955 104 973 q 68 911 68 937 l 68 62 q 86 18 68 36 q 130 0 104 0 q 174 18 155 0 q 192 62 192 36 l 192 338 z "},"q":{"ha":1109,"x_min":68,"x_max":1041,"o":"m 616 186 q 598 230 616 212 q 554 248 580 248 q 511 230 529 248 q 492 186 492 212 l 492 130 q 278 252 363 152 q 192 487 192 354 q 298 743 192 637 q 554 850 404 850 q 810 743 705 850 q 917 487 917 637 q 831 252 917 354 q 616 130 745 152 l 616 186 m 554 974 q 210 831 353 974 q 68 487 68 688 q 210 143 68 286 q 492 4 328 25 l 492 -62 q 511 -105 492 -87 q 554 -123 529 -123 q 598 -105 580 -123 q 616 -62 616 -87 l 616 4 q 899 143 781 25 q 1041 487 1041 286 q 899 831 1041 688 q 554 974 756 974 z "},"r":{"ha":852,"x_min":68,"x_max":785,"o":"m 650 656 q 593 519 650 576 q 456 463 536 463 l 192 463 l 192 849 l 456 849 q 593 793 536 849 q 650 656 650 736 m 130 0 q 174 18 155 0 q 192 62 192 36 l 192 338 l 382 338 l 676 20 q 722 0 694 0 q 764 16 746 0 q 784 60 783 34 q 767 104 785 85 l 541 350 q 707 462 642 378 q 774 656 774 547 q 681 880 774 787 q 456 973 588 973 l 130 973 q 86 955 104 973 q 68 911 68 937 l 68 62 q 86 18 68 36 q 130 0 104 0 z "},"s":{"ha":853,"x_min":68,"x_max":785,"o":"m 342 124 q 236 168 280 124 q 192 274 192 212 q 174 318 192 300 q 130 336 155 336 q 86 318 104 336 q 68 274 68 300 q 149 81 68 161 q 342 0 229 0 l 511 0 q 705 81 624 0 q 785 274 785 161 q 705 468 785 388 q 511 549 624 549 l 342 549 q 236 593 280 549 q 192 699 192 637 q 236 805 192 761 q 342 849 280 849 l 511 849 q 617 805 573 849 q 661 699 661 761 q 680 655 661 673 q 723 637 697 637 q 767 655 749 637 q 785 699 785 673 q 705 892 785 812 q 511 973 624 973 l 342 973 q 149 892 229 973 q 68 699 68 812 q 149 505 68 585 q 342 425 229 425 l 511 425 q 617 380 573 425 q 661 274 661 336 q 617 168 661 212 q 511 124 573 124 l 342 124 z "},"t":{"ha":914,"x_min":68,"x_max":846,"o":"m 395 849 l 395 62 q 413 18 395 36 q 457 0 431 0 q 501 18 483 0 q 519 62 519 36 l 519 849 l 785 849 q 828 867 810 849 q 846 911 846 886 q 828 955 846 937 q 785 973 810 973 l 130 973 q 86 955 104 973 q 68 911 68 937 q 86 867 68 886 q 130 849 104 849 l 395 849 z "},"u":{"ha":879,"x_min":68,"x_max":811,"o":"m 439 0 q 702 109 593 0 q 811 372 811 218 l 811 911 q 793 955 811 937 q 749 973 774 973 q 705 955 724 973 q 687 911 687 937 l 687 372 q 614 197 687 269 q 439 124 542 124 q 264 197 337 124 q 192 372 192 269 l 192 911 q 174 955 192 937 q 130 973 155 973 q 86 955 104 973 q 68 911 68 937 l 68 372 q 177 109 68 218 q 439 0 286 0 z "},"v":{"ha":1013,"x_min":68,"x_max":945,"o":"m 450 37 q 506 0 466 0 q 563 37 547 0 l 935 886 q 935 934 945 910 q 903 968 926 958 q 855 969 879 978 q 821 936 831 960 l 506 216 l 191 936 q 157 969 181 960 q 110 968 134 978 q 77 934 86 958 q 78 886 68 910 l 450 37 z "},"w":{"ha":1367,"x_min":68,"x_max":1299,"o":"m 450 37 q 506 0 466 0 q 563 37 547 0 l 680 306 l 804 36 q 860 0 821 0 l 861 0 q 917 37 901 1 l 1289 886 q 1289 934 1299 910 q 1257 968 1280 958 q 1209 969 1233 978 q 1175 936 1185 960 l 859 213 l 735 482 q 679 519 718 518 q 621 481 637 519 l 506 217 l 191 936 q 157 969 181 960 q 110 968 134 978 q 77 934 86 958 q 78 886 68 910 l 450 37 z "},"x":{"ha":920,"x_min":68,"x_max":852,"o":"m 95 13 q 132 0 111 0 q 182 24 163 0 l 460 385 l 738 24 q 787 0 757 0 q 825 13 808 0 q 848 54 845 28 q 836 100 852 79 l 538 486 l 836 873 q 848 919 852 894 q 825 960 845 945 q 779 972 804 976 q 738 949 753 969 l 460 588 l 182 949 q 140 972 166 969 q 95 960 115 976 q 71 919 75 945 q 83 873 68 894 l 382 486 l 83 100 q 71 54 68 79 q 95 13 75 28 z "},"y":{"ha":940,"x_min":68,"x_max":872,"o":"m 408 362 l 408 62 q 427 18 408 36 q 470 0 444 0 q 514 18 496 0 q 532 62 532 36 l 532 362 l 859 878 q 867 925 872 900 q 840 964 861 949 q 793 972 818 977 q 754 944 768 966 l 470 496 l 186 944 q 147 972 172 966 q 101 964 123 977 q 73 925 79 949 q 81 878 68 900 l 408 362 z "},"z":{"ha":899,"x_min":68,"x_max":831,"o":"m 760 0 q 803 18 785 0 q 821 62 821 36 q 803 106 821 87 q 760 124 785 124 l 262 124 l 809 875 q 814 939 831 905 q 760 973 798 973 l 140 973 q 96 955 115 973 q 78 911 78 937 q 96 867 78 886 q 140 849 115 849 l 637 849 l 90 98 q 85 34 68 68 q 140 0 102 0 l 760 0 z "},"©":{"ha":737,"x_min":68,"x_max":669,"o":"m 369 292 q 231 349 288 292 q 174 487 174 406 q 231 624 174 567 q 369 681 288 681 q 506 624 449 681 q 563 487 563 567 q 506 349 563 406 q 369 292 449 292 m 369 787 q 156 699 244 787 q 68 487 68 611 q 156 274 68 362 q 369 186 244 186 q 581 274 493 186 q 669 487 669 362 q 581 699 669 611 q 369 787 493 787 m 374 530 q 405 517 393 530 q 443 502 420 502 q 480 517 465 502 q 496 555 496 533 q 480 592 496 577 q 374 636 436 636 q 269 593 313 636 q 225 487 225 549 q 269 381 225 425 q 374 337 313 337 q 480 381 436 337 q 496 418 496 396 q 480 456 496 440 q 443 471 465 471 q 405 456 420 471 q 374 443 393 443 q 344 456 357 443 q 331 487 331 469 q 344 517 331 505 q 374 530 357 530 z "},"´":{"ha":224,"x_min":68,"x_max":156,"o":"m 156 926 q 143 957 156 944 q 112 970 130 970 q 81 957 94 970 q 68 926 68 944 l 68 854 q 81 823 68 836 q 112 810 94 810 q 143 823 130 810 q 156 854 156 836 l 156 926 z "},"À":{"ha":1013,"x_min":68,"x_max":945,"o":"m 353 407 l 506 757 l 659 407 l 353 407 m 563 936 q 506 973 547 973 q 450 936 466 973 l 78 87 q 77 39 68 64 q 110 5 86 16 q 157 5 134 -5 q 191 37 181 14 l 299 283 l 713 283 l 821 37 q 878 0 838 0 q 903 5 890 0 q 935 39 926 16 q 935 87 945 64 l 563 936 m 463 1128 q 453 1103 453 1118 q 463 1078 453 1088 l 513 1028 q 538 1017 524 1017 q 564 1028 553 1017 q 574 1053 574 1038 q 564 1078 574 1067 l 513 1128 q 488 1139 503 1139 q 463 1128 474 1139 z "},"Á":{"ha":1013,"x_min":68,"x_max":945,"o":"m 353 407 l 506 757 l 659 407 l 353 407 m 563 936 q 506 973 547 973 q 450 936 466 973 l 78 87 q 77 39 68 64 q 110 5 86 16 q 157 5 134 -5 q 191 37 181 14 l 299 283 l 713 283 l 821 37 q 878 0 838 0 q 903 5 890 0 q 935 39 926 16 q 935 87 945 64 l 563 936 m 463 1078 q 453 1053 453 1067 q 463 1028 453 1038 q 488 1017 474 1017 q 513 1028 503 1017 l 564 1078 q 574 1103 574 1088 q 564 1128 574 1118 q 538 1139 553 1139 q 513 1128 524 1139 l 463 1078 z "},"Â":{"ha":1013,"x_min":68,"x_max":945,"o":"m 353 407 l 506 757 l 659 407 l 353 407 m 563 936 q 506 973 547 973 q 450 936 466 973 l 78 87 q 77 39 68 64 q 110 5 86 16 q 157 5 134 -5 q 191 37 181 14 l 299 283 l 713 283 l 821 37 q 878 0 838 0 q 903 5 890 0 q 935 39 926 16 q 935 87 945 64 l 563 936 m 527 1129 q 502 1139 516 1139 q 478 1128 488 1138 l 428 1078 q 418 1053 418 1067 q 428 1028 418 1038 q 453 1017 439 1017 q 478 1028 468 1017 l 505 1055 l 536 1027 q 559 1017 546 1017 q 586 1029 575 1017 q 595 1055 595 1040 q 583 1080 594 1069 l 527 1129 z "},"Ã":{"ha":1013,"x_min":68,"x_max":945,"o":"m 353 407 l 506 757 l 659 407 l 353 407 m 878 0 q 903 5 890 0 q 935 39 926 16 q 935 87 945 64 l 563 936 q 506 973 547 973 q 450 936 466 973 l 78 87 q 77 39 68 64 q 110 5 86 16 q 157 5 134 -5 q 191 37 181 14 l 299 283 l 713 283 l 821 37 q 878 0 838 0 m 587 1119 q 564 1099 572 1103 q 545 1094 553 1093 q 526 1105 539 1095 q 520 1110 522 1109 q 436 1128 479 1143 q 393 1101 415 1122 q 382 1076 383 1091 q 392 1051 382 1062 q 416 1040 402 1040 q 442 1050 431 1040 q 459 1062 452 1059 q 476 1055 465 1064 q 480 1051 477 1053 q 534 1024 509 1027 q 547 1023 541 1023 q 598 1037 573 1023 q 637 1068 614 1046 q 648 1093 647 1078 q 637 1118 648 1107 q 612 1128 627 1128 q 587 1119 598 1129 z "},"Ä":{"ha":1013,"x_min":68,"x_max":945,"o":"m 552 1096 q 542 1071 542 1085 q 552 1046 542 1056 q 577 1035 562 1035 q 602 1046 591 1035 q 612 1071 612 1056 q 602 1096 612 1085 q 577 1106 591 1106 q 552 1096 562 1106 m 435 1106 q 410 1096 420 1106 q 400 1071 400 1085 q 410 1046 400 1056 q 435 1035 420 1035 q 460 1046 450 1035 q 471 1071 471 1056 q 460 1096 471 1085 q 435 1106 450 1106 m 353 407 l 506 757 l 659 407 l 353 407 m 903 5 q 935 39 926 16 q 935 87 945 64 l 563 936 q 506 973 547 973 q 450 936 466 973 l 78 87 q 77 39 68 64 q 110 5 86 16 q 157 5 134 -5 q 191 37 181 14 l 299 283 l 713 283 l 821 37 q 878 0 838 0 q 903 5 890 0 z "},"Å":{"ha":1013,"x_min":68,"x_max":945,"o":"m 353 407 l 506 757 l 659 407 l 353 407 m 506 1075 q 536 1063 524 1075 q 548 1033 548 1050 q 536 1003 548 1016 q 506 991 524 991 q 477 1003 489 991 q 465 1033 465 1016 q 477 1063 465 1050 q 506 1075 489 1075 m 570 920 q 637 1033 637 957 q 598 1125 637 1087 q 506 1164 560 1164 q 414 1125 452 1164 q 376 1033 376 1087 q 442 920 376 957 l 78 87 q 77 39 68 64 q 110 5 86 16 q 157 5 134 -5 q 191 37 181 14 l 299 283 l 713 283 l 821 37 q 878 0 838 0 q 903 5 890 0 q 935 39 926 16 q 935 87 945 64 l 570 920 z "},"Æ":{"ha":1202,"x_min":68,"x_max":1135,"o":"m 353 407 l 502 747 l 629 407 l 353 407 m 1072 849 q 1116 867 1098 849 q 1135 911 1135 886 q 1116 955 1135 937 q 1072 973 1098 973 l 506 973 q 504 973 505 973 l 503 973 q 499 972 501 973 q 498 972 499 972 q 494 972 496 972 l 494 972 q 494 972 494 972 q 490 971 492 972 q 489 970 490 971 q 486 970 487 970 q 481 968 484 968 q 481 968 481 968 q 477 966 479 966 q 473 964 475 965 l 473 964 q 473 964 473 964 q 473 964 474 964 l 473 963 q 469 961 471 962 l 469 961 q 469 961 469 961 q 466 958 468 960 q 465 958 466 958 q 463 956 464 956 l 463 955 q 460 952 461 954 q 459 951 459 951 q 456 948 458 949 q 456 948 456 948 q 454 945 455 946 l 454 944 q 449 935 451 940 l 201 370 q 201 370 201 370 q 201 369 201 369 l 78 87 q 77 39 68 63 q 110 5 86 16 q 135 0 122 0 q 191 37 175 0 l 299 283 l 675 283 l 767 40 q 825 0 782 0 l 1072 0 q 1116 18 1098 0 q 1135 62 1135 37 q 1116 106 1135 87 q 1072 124 1098 124 l 867 124 l 755 425 l 1072 425 q 1116 443 1098 425 q 1135 486 1135 461 q 1116 530 1135 512 q 1072 549 1098 549 l 709 549 l 595 849 l 1072 849 z "},"Ç":{"ha":985,"x_min":68,"x_max":917,"o":"m 811 736 q 854 718 829 718 q 899 736 880 718 q 917 781 917 755 q 899 824 917 806 q 554 966 756 966 q 210 824 353 966 q 68 480 68 682 q 210 136 68 279 q 457 3 314 32 l 457 -33 q 475 -77 457 -59 q 519 -95 493 -95 q 563 -77 545 -95 q 581 -33 581 -59 l 581 -5 q 899 136 766 4 q 917 180 917 154 q 899 224 917 205 q 854 241 880 241 q 811 224 829 241 q 554 117 705 117 q 298 224 404 117 q 192 480 192 330 q 298 736 192 631 q 554 842 404 842 q 811 736 705 842 z "},"È":{"ha":844,"x_min":68,"x_max":776,"o":"m 713 849 q 758 867 739 849 q 776 911 776 886 q 758 955 776 937 q 713 973 739 973 l 130 973 q 86 955 104 973 q 68 911 68 937 l 68 62 q 86 18 68 36 q 130 0 104 0 l 713 0 q 758 18 739 0 q 776 62 776 36 q 758 106 776 87 q 713 124 739 124 l 192 124 l 192 425 l 572 425 q 616 443 597 425 q 634 486 634 461 q 616 530 634 512 q 572 549 597 549 l 192 549 l 192 849 l 713 849 m 372 1128 q 361 1103 361 1118 q 372 1078 361 1088 l 422 1027 q 447 1017 432 1017 q 472 1027 461 1017 q 482 1053 482 1038 q 472 1078 482 1067 l 422 1128 q 397 1138 411 1138 q 372 1128 382 1138 z "},"É":{"ha":844,"x_min":68,"x_max":776,"o":"m 713 849 q 758 867 739 849 q 776 911 776 886 q 758 955 776 937 q 713 973 739 973 l 130 973 q 86 955 104 973 q 68 911 68 937 l 68 62 q 86 18 68 36 q 130 0 104 0 l 713 0 q 758 18 739 0 q 776 62 776 36 q 758 106 776 87 q 713 124 739 124 l 192 124 l 192 425 l 572 425 q 616 443 597 425 q 634 486 634 461 q 616 530 634 512 q 572 549 597 549 l 192 549 l 192 849 l 713 849 m 372 1027 q 397 1017 382 1017 q 422 1027 411 1017 l 472 1078 q 482 1103 482 1088 q 472 1128 482 1118 q 447 1138 461 1138 q 422 1128 432 1138 l 372 1078 q 361 1053 361 1067 q 372 1027 361 1038 z "},"Ê":{"ha":844,"x_min":68,"x_max":776,"o":"m 713 849 q 758 867 739 849 q 776 911 776 886 q 758 955 776 937 q 713 973 739 973 l 130 973 q 86 955 104 973 q 68 911 68 937 l 68 62 q 86 18 68 36 q 130 0 104 0 l 713 0 q 758 18 739 0 q 776 62 776 36 q 758 106 776 87 q 713 124 739 124 l 192 124 l 192 425 l 572 425 q 616 443 597 425 q 634 486 634 461 q 616 530 634 512 q 572 549 597 549 l 192 549 l 192 849 l 713 849 m 442 1129 q 418 1138 432 1139 q 393 1128 404 1138 l 344 1078 q 333 1053 333 1067 q 344 1027 333 1038 q 369 1017 354 1017 q 393 1027 383 1017 l 420 1054 l 451 1026 q 475 1017 461 1017 q 501 1029 490 1017 q 510 1055 511 1040 q 498 1079 509 1069 l 442 1129 z "},"Ë":{"ha":844,"x_min":68,"x_max":776,"o":"m 713 849 q 758 867 739 849 q 776 911 776 886 q 758 955 776 937 q 713 973 739 973 l 130 973 q 86 955 104 973 q 68 911 68 937 l 68 62 q 86 18 68 36 q 130 0 104 0 l 713 0 q 758 18 739 0 q 776 62 776 36 q 758 106 776 87 q 713 124 739 124 l 192 124 l 192 425 l 572 425 q 616 443 597 425 q 634 486 634 461 q 616 530 634 512 q 572 549 597 549 l 192 549 l 192 849 l 713 849 m 467 1095 q 457 1070 457 1085 q 467 1045 457 1056 q 492 1035 477 1035 q 517 1045 507 1035 q 528 1070 528 1056 q 517 1095 528 1085 q 492 1106 507 1106 q 467 1095 478 1106 m 326 1095 q 315 1070 315 1085 q 326 1045 315 1056 q 351 1035 336 1035 q 376 1045 366 1035 q 387 1070 387 1056 q 376 1095 387 1085 q 351 1106 366 1106 q 326 1095 336 1106 z "},"Ì":{"ha":260,"x_min":68,"x_max":192,"o":"m 130 973 q 86 955 104 973 q 68 911 68 937 l 68 62 q 86 18 68 36 q 130 0 104 0 q 174 18 155 0 q 192 62 192 36 l 192 911 q 174 955 192 937 q 130 973 155 973 m 130 1027 q 155 1017 140 1017 q 180 1027 170 1017 q 190 1053 190 1038 q 180 1078 190 1067 l 130 1128 q 104 1138 119 1138 q 80 1128 90 1138 q 69 1103 69 1118 q 80 1078 69 1088 l 130 1027 z "},"Í":{"ha":260,"x_min":68,"x_max":192,"o":"m 130 973 q 86 955 104 973 q 68 911 68 937 l 68 62 q 86 18 68 36 q 130 0 104 0 q 174 18 155 0 q 192 62 192 36 l 192 911 q 174 955 192 937 q 130 973 155 973 m 80 1027 q 104 1017 90 1017 q 130 1027 119 1017 l 180 1078 q 190 1103 190 1088 q 180 1128 190 1118 q 155 1138 170 1138 q 130 1128 140 1138 l 80 1078 q 69 1053 69 1067 q 80 1027 69 1038 z "},"Î":{"ha":313,"x_min":68,"x_max":245,"o":"m 156 973 q 113 955 131 973 q 94 911 94 937 l 94 62 q 113 18 94 36 q 156 0 131 0 q 200 18 182 0 q 218 62 218 36 l 218 911 q 200 955 218 937 q 156 973 182 973 m 177 1129 q 152 1138 166 1139 q 128 1128 138 1138 l 78 1078 q 68 1053 68 1067 q 78 1027 68 1038 q 103 1017 89 1017 q 128 1027 118 1017 l 155 1054 l 186 1026 q 210 1017 196 1017 q 236 1029 225 1017 q 245 1055 245 1040 q 233 1079 244 1069 l 177 1129 z "},"Ï":{"ha":348,"x_min":68,"x_max":280,"o":"m 174 973 q 130 955 149 973 q 112 911 112 937 l 112 62 q 130 18 112 36 q 174 0 149 0 q 218 18 199 0 q 236 62 236 36 l 236 911 q 218 955 236 937 q 174 973 199 973 m 245 1106 q 220 1095 230 1106 q 210 1070 210 1085 q 220 1045 210 1056 q 245 1035 230 1035 q 270 1045 260 1035 q 280 1070 280 1056 q 270 1095 280 1085 q 245 1106 260 1106 m 138 1070 q 128 1095 138 1085 q 103 1106 118 1106 q 78 1095 89 1106 q 68 1070 68 1085 q 78 1045 68 1056 q 103 1035 89 1035 q 128 1045 118 1035 q 138 1070 138 1056 z "},"Ð":{"ha":985,"x_min":68,"x_max":917,"o":"m 280 124 l 280 425 l 395 425 q 439 443 420 425 q 457 486 457 461 q 439 530 457 512 q 395 549 420 549 l 280 549 l 280 849 l 431 849 q 687 743 581 849 q 793 486 793 637 q 687 230 793 336 q 431 124 581 124 l 280 124 m 218 973 q 174 955 193 973 q 156 911 156 937 l 156 549 l 130 549 q 86 530 104 549 q 68 486 68 512 q 86 443 68 461 q 130 425 104 425 l 156 425 l 156 62 q 174 18 156 36 q 218 0 193 0 l 431 0 q 774 142 632 0 q 917 486 917 285 q 774 831 917 688 q 431 973 632 973 l 218 973 z "},"Ñ":{"ha":914,"x_min":68,"x_max":846,"o":"m 384 1050 q 401 1061 395 1059 q 418 1055 407 1063 q 422 1051 419 1054 q 476 1023 451 1027 q 489 1023 482 1023 q 541 1037 515 1023 q 579 1067 557 1046 q 589 1093 589 1078 q 580 1118 590 1107 q 555 1128 570 1128 q 530 1118 540 1128 q 505 1099 513 1103 q 486 1094 495 1093 q 468 1105 481 1095 q 463 1110 464 1108 q 378 1128 420 1143 q 336 1101 357 1122 q 325 1076 325 1091 q 334 1051 324 1062 q 359 1040 344 1040 q 384 1050 374 1040 m 785 973 q 741 955 759 973 q 722 911 722 937 l 722 243 l 179 949 q 110 970 152 984 q 68 911 68 956 l 68 62 q 86 18 68 36 q 130 0 104 0 q 174 18 155 0 q 192 62 192 36 l 192 730 l 735 24 q 785 0 754 0 q 804 3 795 0 q 846 62 846 18 l 846 911 q 828 955 846 937 q 785 973 810 973 z "},"Ò":{"ha":1109,"x_min":68,"x_max":1041,"o":"m 554 124 q 298 230 404 124 q 192 486 192 336 q 298 743 192 637 q 554 849 404 849 q 810 743 705 849 q 917 486 917 637 q 810 230 917 336 q 554 124 705 124 m 554 973 q 210 831 353 973 q 68 486 68 688 q 210 142 68 285 q 554 0 353 0 q 899 142 756 0 q 1041 486 1041 285 q 899 831 1041 688 q 554 973 756 973 m 554 1128 q 530 1138 544 1138 q 505 1128 515 1138 q 494 1103 494 1118 q 505 1078 494 1088 l 554 1027 q 579 1017 565 1017 q 604 1027 594 1017 q 615 1053 615 1038 q 604 1078 615 1067 l 554 1128 z "},"Ó":{"ha":1109,"x_min":68,"x_max":1041,"o":"m 554 124 q 298 230 404 124 q 192 486 192 336 q 298 743 192 637 q 554 849 404 849 q 810 743 705 849 q 917 486 917 637 q 810 230 917 336 q 554 124 705 124 m 554 973 q 210 831 353 973 q 68 486 68 688 q 210 142 68 285 q 554 0 353 0 q 899 142 756 0 q 1041 486 1041 285 q 899 831 1041 688 q 554 973 756 973 m 530 1017 q 554 1027 544 1017 l 604 1078 q 615 1103 615 1088 q 604 1128 615 1118 q 579 1138 594 1138 q 554 1128 565 1138 l 505 1078 q 494 1053 494 1067 q 505 1027 494 1038 q 530 1017 515 1017 z "},"Ô":{"ha":1109,"x_min":68,"x_max":1041,"o":"m 554 124 q 298 230 404 124 q 192 486 192 336 q 298 743 192 637 q 554 849 404 849 q 810 743 705 849 q 917 486 917 637 q 810 230 917 336 q 554 124 705 124 m 554 973 q 210 831 353 973 q 68 486 68 688 q 210 142 68 285 q 554 0 353 0 q 899 142 756 0 q 1041 486 1041 285 q 899 831 1041 688 q 554 973 756 973 m 575 1129 q 550 1138 564 1139 q 526 1128 536 1138 l 476 1078 q 466 1053 466 1067 q 476 1027 466 1038 q 501 1017 487 1017 q 526 1027 516 1017 l 553 1054 l 584 1026 q 608 1017 594 1017 q 634 1029 623 1017 q 643 1055 644 1040 q 631 1079 642 1069 l 575 1129 z "},"Õ":{"ha":1109,"x_min":68,"x_max":1041,"o":"m 554 124 q 298 230 404 124 q 192 486 192 336 q 298 743 192 637 q 554 849 404 849 q 810 743 705 849 q 917 486 917 637 q 810 230 917 336 q 554 124 705 124 m 554 973 q 210 831 353 973 q 68 486 68 688 q 210 142 68 285 q 554 0 353 0 q 899 142 756 0 q 1041 486 1041 285 q 899 831 1041 688 q 554 973 756 973 m 481 1050 q 498 1061 492 1059 q 515 1055 504 1063 q 519 1051 517 1054 q 574 1023 549 1027 q 586 1023 580 1023 q 637 1037 613 1023 q 676 1067 654 1046 q 687 1093 687 1078 q 677 1118 687 1107 q 652 1128 667 1128 q 627 1118 637 1128 q 603 1099 611 1103 q 584 1094 592 1093 q 565 1105 578 1095 q 559 1109 562 1109 q 475 1128 518 1143 q 433 1101 454 1122 q 422 1076 422 1091 q 431 1051 421 1062 q 456 1040 441 1040 q 481 1050 471 1040 z "},"Ö":{"ha":1109,"x_min":68,"x_max":1041,"o":"m 554 124 q 298 230 404 124 q 192 486 192 336 q 298 743 192 637 q 554 849 404 849 q 810 743 705 849 q 917 486 917 637 q 810 230 917 336 q 554 124 705 124 m 554 973 q 210 831 353 973 q 68 486 68 688 q 210 142 68 285 q 554 0 353 0 q 899 142 756 0 q 1041 486 1041 285 q 899 831 1041 688 q 554 973 756 973 m 650 1045 q 661 1070 661 1056 q 650 1095 661 1085 q 625 1106 640 1106 q 600 1095 610 1106 q 590 1070 590 1085 q 600 1045 590 1056 q 625 1035 610 1035 q 650 1045 640 1035 m 484 1035 q 509 1045 498 1035 q 519 1070 519 1056 q 509 1095 519 1085 q 484 1106 498 1106 q 458 1095 469 1106 q 448 1070 448 1085 q 458 1045 448 1056 q 484 1035 469 1035 z "},"×":{"ha":472,"x_min":68,"x_max":404,"o":"m 298 332 q 342 313 317 313 q 386 332 368 313 q 404 375 404 349 q 386 419 404 401 l 323 481 l 386 544 q 404 588 404 562 q 386 631 404 614 q 342 650 368 650 q 298 631 317 650 l 236 569 l 174 631 q 130 650 155 650 q 86 631 104 650 q 68 588 68 614 q 86 544 68 562 l 149 481 l 86 419 q 68 375 68 401 q 86 332 68 349 q 130 313 104 313 q 174 332 155 313 l 236 394 l 298 332 z "},"Ø":{"ha":1109,"x_min":68,"x_max":1041,"o":"m 917 486 q 810 230 917 336 q 554 124 705 124 q 346 190 439 124 l 850 695 q 917 486 917 602 m 192 486 q 298 743 192 637 q 554 849 404 849 q 763 783 669 849 l 258 278 q 192 486 192 372 m 1023 955 q 979 973 1004 973 q 935 955 954 973 l 852 871 q 554 973 721 973 q 210 831 353 973 q 68 486 68 688 q 170 189 68 320 l 86 106 q 68 62 68 87 q 86 18 68 36 q 130 0 104 0 q 174 18 155 0 l 257 102 q 554 0 388 0 q 899 142 756 0 q 1041 486 1041 285 q 939 784 1041 653 l 1023 867 q 1041 911 1041 886 q 1023 955 1041 937 z "},"Ù":{"ha":879,"x_min":68,"x_max":811,"o":"m 465 1021 q 490 1031 479 1021 q 500 1056 500 1041 q 490 1081 500 1070 l 439 1131 q 414 1141 429 1141 q 389 1131 399 1141 q 379 1106 379 1120 q 389 1081 379 1091 l 439 1031 q 465 1021 450 1021 m 749 973 q 705 955 724 973 q 687 911 687 937 l 687 372 q 614 197 687 269 q 439 124 542 124 q 264 197 337 124 q 192 372 192 269 l 192 911 q 174 955 192 937 q 130 973 155 973 q 86 955 104 973 q 68 911 68 937 l 68 372 q 177 109 68 218 q 439 0 286 0 q 702 109 593 0 q 811 372 811 218 l 811 911 q 793 955 811 937 q 749 973 774 973 z "},"Ú":{"ha":879,"x_min":68,"x_max":811,"o":"m 490 1081 q 500 1106 500 1091 q 490 1131 500 1120 q 465 1141 479 1141 q 439 1131 450 1141 l 389 1081 q 379 1056 379 1070 q 389 1031 379 1041 q 414 1021 399 1021 q 439 1031 429 1021 l 490 1081 m 749 973 q 705 955 724 973 q 687 911 687 937 l 687 372 q 614 197 687 269 q 439 124 542 124 q 264 197 337 124 q 192 372 192 269 l 192 911 q 174 955 192 937 q 130 973 155 973 q 86 955 104 973 q 68 911 68 937 l 68 372 q 177 109 68 218 q 439 0 286 0 q 702 109 593 0 q 811 372 811 218 l 811 911 q 793 955 811 937 q 749 973 774 973 z "},"Û":{"ha":879,"x_min":68,"x_max":811,"o":"m 437 1057 l 469 1029 q 492 1021 479 1021 q 519 1032 509 1021 q 528 1058 528 1043 q 516 1082 527 1072 l 460 1132 q 435 1141 450 1141 q 411 1131 421 1141 l 361 1081 q 351 1056 351 1070 q 361 1031 351 1041 q 387 1021 372 1021 q 411 1031 401 1021 l 437 1057 m 749 973 q 705 955 724 973 q 687 911 687 937 l 687 372 q 614 197 687 269 q 439 124 542 124 q 264 197 337 124 q 192 372 192 269 l 192 911 q 174 955 192 937 q 130 973 155 973 q 86 955 104 973 q 68 911 68 937 l 68 372 q 177 109 68 218 q 439 0 286 0 q 702 109 593 0 q 811 372 811 218 l 811 911 q 793 955 811 937 q 749 973 774 973 z "},"Ü":{"ha":879,"x_min":68,"x_max":811,"o":"m 535 1048 q 545 1074 545 1059 q 535 1099 545 1088 q 510 1109 525 1109 q 485 1099 496 1109 q 475 1074 475 1088 q 485 1048 475 1059 q 510 1038 496 1038 q 535 1048 525 1038 m 393 1048 q 404 1074 404 1059 q 393 1099 404 1088 q 369 1109 383 1109 q 344 1099 354 1109 q 333 1074 333 1088 q 344 1048 333 1059 q 369 1038 354 1038 q 393 1048 383 1038 m 749 973 q 705 955 724 973 q 687 911 687 937 l 687 372 q 614 197 687 269 q 439 124 542 124 q 264 197 337 124 q 192 372 192 269 l 192 911 q 174 955 192 937 q 130 973 155 973 q 86 955 104 973 q 68 911 68 937 l 68 372 q 177 109 68 218 q 439 0 286 0 q 702 109 593 0 q 811 372 811 218 l 811 911 q 793 955 811 937 q 749 973 774 973 z "},"Ý":{"ha":940,"x_min":68,"x_max":872,"o":"m 520 1081 q 530 1106 530 1091 q 520 1131 530 1120 q 495 1141 510 1141 q 470 1131 480 1141 l 420 1081 q 410 1056 410 1070 q 420 1031 410 1041 q 445 1021 431 1021 q 470 1031 460 1021 l 520 1081 m 840 964 q 793 972 818 977 q 754 944 768 966 l 470 496 l 186 944 q 148 972 172 966 q 101 964 123 977 q 73 925 79 949 q 81 878 68 900 l 408 362 l 408 62 q 427 18 408 36 q 470 0 444 0 q 514 18 496 0 q 532 62 532 36 l 532 362 l 859 878 q 867 925 872 900 q 840 964 861 949 z "},"Þ":{"ha":702,"x_min":68,"x_max":634,"o":"m 192 316 l 192 657 l 340 657 q 460 607 410 657 q 510 486 510 557 q 460 366 510 416 q 340 316 410 316 l 192 316 m 192 781 l 192 911 q 174 955 192 937 q 130 973 155 973 q 86 955 104 973 q 68 911 68 937 l 68 62 q 86 18 68 36 q 130 0 104 0 q 174 18 155 0 q 192 62 192 36 l 192 193 l 340 193 q 548 279 461 193 q 634 486 634 365 q 548 694 634 608 q 340 781 461 781 l 192 781 z "},"ß":{"ha":772,"x_min":68,"x_max":705,"o":"m 705 699 q 625 892 705 812 q 431 973 544 973 l 342 973 q 149 892 229 973 q 68 699 68 812 l 68 62 q 86 18 68 36 q 130 0 104 0 q 174 18 155 0 q 192 62 192 36 l 192 699 q 236 805 192 761 q 342 849 280 849 l 431 849 q 537 805 493 849 q 581 699 581 761 q 537 593 581 637 q 431 549 493 549 l 342 549 q 298 530 317 549 q 280 486 280 512 q 298 443 280 461 q 342 425 317 425 l 431 425 q 537 380 493 425 q 581 274 581 336 q 537 168 581 212 q 431 124 493 124 l 342 124 q 298 106 317 124 q 280 62 280 87 q 298 18 280 36 q 342 0 317 0 l 431 0 q 625 81 544 0 q 705 274 705 161 q 604 486 705 404 q 705 699 705 569 z "},"à":{"ha":1013,"x_min":68,"x_max":945,"o":"m 353 407 l 506 757 l 659 407 l 353 407 m 563 936 q 506 973 547 973 q 450 936 466 973 l 78 87 q 77 39 68 64 q 110 5 86 16 q 157 5 134 -5 q 191 37 181 14 l 299 283 l 713 283 l 821 37 q 878 0 838 0 q 903 5 890 0 q 935 39 926 16 q 935 87 945 64 l 563 936 m 463 1128 q 453 1103 453 1118 q 463 1078 453 1088 l 513 1028 q 538 1017 524 1017 q 564 1028 553 1017 q 574 1053 574 1038 q 564 1078 574 1067 l 513 1128 q 488 1139 503 1139 q 463 1128 474 1139 z "},"á":{"ha":1013,"x_min":68,"x_max":945,"o":"m 353 407 l 506 757 l 659 407 l 353 407 m 563 936 q 506 973 547 973 q 450 936 466 973 l 78 87 q 77 39 68 64 q 110 5 86 16 q 157 5 134 -5 q 191 37 181 14 l 299 283 l 713 283 l 821 37 q 878 0 838 0 q 903 5 890 0 q 935 39 926 16 q 935 87 945 64 l 563 936 m 463 1078 q 453 1053 453 1067 q 463 1028 453 1038 q 488 1017 474 1017 q 513 1028 503 1017 l 564 1078 q 574 1103 574 1088 q 564 1128 574 1118 q 538 1139 553 1139 q 513 1128 524 1139 l 463 1078 z "},"â":{"ha":1013,"x_min":68,"x_max":945,"o":"m 353 407 l 506 757 l 659 407 l 353 407 m 563 936 q 506 973 547 973 q 450 936 466 973 l 78 87 q 77 39 68 64 q 110 5 86 16 q 157 5 134 -5 q 191 37 181 14 l 299 283 l 713 283 l 821 37 q 878 0 838 0 q 903 5 890 0 q 935 39 926 16 q 935 87 945 64 l 563 936 m 527 1129 q 502 1139 516 1139 q 478 1128 488 1138 l 428 1078 q 418 1053 418 1067 q 428 1028 418 1038 q 453 1017 439 1017 q 478 1028 468 1017 l 505 1055 l 536 1027 q 559 1017 546 1017 q 586 1029 575 1017 q 595 1055 595 1040 q 583 1080 594 1069 l 527 1129 z "},"ã":{"ha":1013,"x_min":68,"x_max":945,"o":"m 353 407 l 506 757 l 659 407 l 353 407 m 878 0 q 903 5 890 0 q 935 39 926 16 q 935 87 945 64 l 563 936 q 506 973 547 973 q 450 936 466 973 l 78 87 q 77 39 68 64 q 110 5 86 16 q 157 5 134 -5 q 191 37 181 14 l 299 283 l 713 283 l 821 37 q 878 0 838 0 m 587 1119 q 564 1099 572 1103 q 545 1094 553 1093 q 526 1105 539 1095 q 520 1110 522 1109 q 436 1128 479 1143 q 393 1101 415 1122 q 382 1076 383 1091 q 392 1051 382 1062 q 416 1040 402 1040 q 442 1050 431 1040 q 459 1062 452 1059 q 476 1055 465 1064 q 480 1051 477 1053 q 534 1024 509 1027 q 547 1023 541 1023 q 598 1037 573 1023 q 637 1068 614 1046 q 648 1093 647 1078 q 637 1118 648 1107 q 612 1128 627 1128 q 587 1119 598 1129 z "},"ä":{"ha":1013,"x_min":68,"x_max":945,"o":"m 552 1096 q 542 1071 542 1085 q 552 1046 542 1056 q 577 1035 562 1035 q 602 1046 591 1035 q 612 1071 612 1056 q 602 1096 612 1085 q 577 1106 591 1106 q 552 1096 562 1106 m 435 1106 q 410 1096 420 1106 q 400 1071 400 1085 q 410 1046 400 1056 q 435 1035 420 1035 q 460 1046 450 1035 q 471 1071 471 1056 q 460 1096 471 1085 q 435 1106 450 1106 m 353 407 l 506 757 l 659 407 l 353 407 m 903 5 q 935 39 926 16 q 935 87 945 64 l 563 936 q 506 973 547 973 q 450 936 466 973 l 78 87 q 77 39 68 64 q 110 5 86 16 q 157 5 134 -5 q 191 37 181 14 l 299 283 l 713 283 l 821 37 q 878 0 838 0 q 903 5 890 0 z "},"å":{"ha":1013,"x_min":68,"x_max":945,"o":"m 353 407 l 506 757 l 659 407 l 353 407 m 506 1075 q 536 1063 524 1075 q 548 1033 548 1050 q 536 1003 548 1016 q 506 991 524 991 q 477 1003 489 991 q 465 1033 465 1016 q 477 1063 465 1050 q 506 1075 489 1075 m 570 920 q 637 1033 637 957 q 598 1125 637 1087 q 506 1164 560 1164 q 414 1125 452 1164 q 376 1033 376 1087 q 442 920 376 957 l 78 87 q 77 39 68 64 q 110 5 86 16 q 157 5 134 -5 q 191 37 181 14 l 299 283 l 713 283 l 821 37 q 878 0 838 0 q 903 5 890 0 q 935 39 926 16 q 935 87 945 64 l 570 920 z "},"æ":{"ha":1202,"x_min":68,"x_max":1135,"o":"m 353 407 l 502 747 l 629 407 l 353 407 m 1072 849 q 1116 867 1098 849 q 1135 911 1135 886 q 1116 955 1135 937 q 1072 973 1098 973 l 506 973 q 504 973 505 973 l 503 973 q 499 972 501 973 q 498 972 499 972 q 494 972 496 972 l 494 972 q 494 972 494 972 q 490 971 492 972 q 489 970 490 971 q 486 970 487 970 q 481 968 484 968 q 481 968 481 968 q 477 966 479 966 q 473 964 475 965 l 473 964 q 473 964 473 964 q 473 964 474 964 l 473 963 q 469 961 471 962 l 469 961 q 469 961 469 961 q 466 958 468 960 q 465 958 466 958 q 463 956 464 956 l 463 955 q 460 952 461 954 q 459 951 459 951 q 456 948 458 949 q 456 948 456 948 q 454 945 455 946 l 454 944 q 449 935 451 940 l 201 370 q 201 370 201 370 q 201 369 201 369 l 78 87 q 77 39 68 63 q 110 5 86 16 q 135 0 122 0 q 191 37 175 0 l 299 283 l 675 283 l 767 40 q 825 0 782 0 l 1072 0 q 1116 18 1098 0 q 1135 62 1135 37 q 1116 106 1135 87 q 1072 124 1098 124 l 867 124 l 755 425 l 1072 425 q 1116 443 1098 425 q 1135 486 1135 461 q 1116 530 1135 512 q 1072 549 1098 549 l 709 549 l 595 849 l 1072 849 z "},"ç":{"ha":985,"x_min":68,"x_max":917,"o":"m 811 736 q 854 718 829 718 q 899 736 880 718 q 917 781 917 755 q 899 824 917 806 q 554 966 756 966 q 210 824 353 966 q 68 480 68 682 q 210 136 68 279 q 457 3 314 32 l 457 -33 q 475 -77 457 -59 q 519 -95 493 -95 q 563 -77 545 -95 q 581 -33 581 -59 l 581 -5 q 899 136 766 4 q 917 180 917 154 q 899 224 917 205 q 854 241 880 241 q 811 224 829 241 q 554 117 705 117 q 298 224 404 117 q 192 480 192 330 q 298 736 192 631 q 554 842 404 842 q 811 736 705 842 z "},"è":{"ha":844,"x_min":68,"x_max":776,"o":"m 713 849 q 758 867 739 849 q 776 911 776 886 q 758 955 776 937 q 713 973 739 973 l 130 973 q 86 955 104 973 q 68 911 68 937 l 68 62 q 86 18 68 36 q 130 0 104 0 l 713 0 q 758 18 739 0 q 776 62 776 36 q 758 106 776 87 q 713 124 739 124 l 192 124 l 192 425 l 572 425 q 616 443 597 425 q 634 486 634 461 q 616 530 634 512 q 572 549 597 549 l 192 549 l 192 849 l 713 849 m 372 1128 q 361 1103 361 1118 q 372 1078 361 1088 l 422 1027 q 447 1017 432 1017 q 472 1027 461 1017 q 482 1053 482 1038 q 472 1078 482 1067 l 422 1128 q 397 1138 411 1138 q 372 1128 382 1138 z "},"é":{"ha":844,"x_min":68,"x_max":776,"o":"m 713 849 q 758 867 739 849 q 776 911 776 886 q 758 955 776 937 q 713 973 739 973 l 130 973 q 86 955 104 973 q 68 911 68 937 l 68 62 q 86 18 68 36 q 130 0 104 0 l 713 0 q 758 18 739 0 q 776 62 776 36 q 758 106 776 87 q 713 124 739 124 l 192 124 l 192 425 l 572 425 q 616 443 597 425 q 634 486 634 461 q 616 530 634 512 q 572 549 597 549 l 192 549 l 192 849 l 713 849 m 372 1027 q 397 1017 382 1017 q 422 1027 411 1017 l 472 1078 q 482 1103 482 1088 q 472 1128 482 1118 q 447 1138 461 1138 q 422 1128 432 1138 l 372 1078 q 361 1053 361 1067 q 372 1027 361 1038 z "},"ê":{"ha":844,"x_min":68,"x_max":776,"o":"m 713 849 q 758 867 739 849 q 776 911 776 886 q 758 955 776 937 q 713 973 739 973 l 130 973 q 86 955 104 973 q 68 911 68 937 l 68 62 q 86 18 68 36 q 130 0 104 0 l 713 0 q 758 18 739 0 q 776 62 776 36 q 758 106 776 87 q 713 124 739 124 l 192 124 l 192 425 l 572 425 q 616 443 597 425 q 634 486 634 461 q 616 530 634 512 q 572 549 597 549 l 192 549 l 192 849 l 713 849 m 442 1129 q 418 1138 432 1139 q 393 1128 404 1138 l 344 1078 q 333 1053 333 1067 q 344 1027 333 1038 q 369 1017 354 1017 q 393 1027 383 1017 l 420 1054 l 451 1026 q 475 1017 461 1017 q 501 1029 490 1017 q 510 1055 511 1040 q 498 1079 509 1069 l 442 1129 z "},"ë":{"ha":844,"x_min":68,"x_max":776,"o":"m 713 849 q 758 867 739 849 q 776 911 776 886 q 758 955 776 937 q 713 973 739 973 l 130 973 q 86 955 104 973 q 68 911 68 937 l 68 62 q 86 18 68 36 q 130 0 104 0 l 713 0 q 758 18 739 0 q 776 62 776 36 q 758 106 776 87 q 713 124 739 124 l 192 124 l 192 425 l 572 425 q 616 443 597 425 q 634 486 634 461 q 616 530 634 512 q 572 549 597 549 l 192 549 l 192 849 l 713 849 m 467 1095 q 457 1070 457 1085 q 467 1045 457 1056 q 492 1035 477 1035 q 517 1045 507 1035 q 528 1070 528 1056 q 517 1095 528 1085 q 492 1106 507 1106 q 467 1095 478 1106 m 326 1095 q 315 1070 315 1085 q 326 1045 315 1056 q 351 1035 336 1035 q 376 1045 366 1035 q 387 1070 387 1056 q 376 1095 387 1085 q 351 1106 366 1106 q 326 1095 336 1106 z "},"ì":{"ha":260,"x_min":68,"x_max":192,"o":"m 130 973 q 86 955 104 973 q 68 911 68 937 l 68 62 q 86 18 68 36 q 130 0 104 0 q 174 18 155 0 q 192 62 192 36 l 192 911 q 174 955 192 937 q 130 973 155 973 m 130 1027 q 155 1017 140 1017 q 180 1027 170 1017 q 190 1053 190 1038 q 180 1078 190 1067 l 130 1128 q 104 1138 119 1138 q 80 1128 90 1138 q 69 1103 69 1118 q 80 1078 69 1088 l 130 1027 z "},"í":{"ha":260,"x_min":68,"x_max":192,"o":"m 130 973 q 86 955 104 973 q 68 911 68 937 l 68 62 q 86 18 68 36 q 130 0 104 0 q 174 18 155 0 q 192 62 192 36 l 192 911 q 174 955 192 937 q 130 973 155 973 m 80 1027 q 104 1017 90 1017 q 130 1027 119 1017 l 180 1078 q 190 1103 190 1088 q 180 1128 190 1118 q 155 1138 170 1138 q 130 1128 140 1138 l 80 1078 q 69 1053 69 1067 q 80 1027 69 1038 z "},"î":{"ha":313,"x_min":68,"x_max":245,"o":"m 156 973 q 113 955 131 973 q 94 911 94 937 l 94 62 q 113 18 94 36 q 156 0 131 0 q 200 18 182 0 q 218 62 218 36 l 218 911 q 200 955 218 937 q 156 973 182 973 m 177 1129 q 152 1138 166 1139 q 128 1128 138 1138 l 78 1078 q 68 1053 68 1067 q 78 1027 68 1038 q 103 1017 89 1017 q 128 1027 118 1017 l 155 1054 l 186 1026 q 210 1017 196 1017 q 236 1029 225 1017 q 245 1055 245 1040 q 233 1079 244 1069 l 177 1129 z "},"ï":{"ha":348,"x_min":68,"x_max":280,"o":"m 174 973 q 130 955 149 973 q 112 911 112 937 l 112 62 q 130 18 112 36 q 174 0 149 0 q 218 18 199 0 q 236 62 236 36 l 236 911 q 218 955 236 937 q 174 973 199 973 m 245 1106 q 220 1095 230 1106 q 210 1070 210 1085 q 220 1045 210 1056 q 245 1035 230 1035 q 270 1045 260 1035 q 280 1070 280 1056 q 270 1095 280 1085 q 245 1106 260 1106 m 138 1070 q 128 1095 138 1085 q 103 1106 118 1106 q 78 1095 89 1106 q 68 1070 68 1085 q 78 1045 68 1056 q 103 1035 89 1035 q 128 1045 118 1035 q 138 1070 138 1056 z "},"ð":{"ha":985,"x_min":68,"x_max":917,"o":"m 280 124 l 280 425 l 395 425 q 439 443 420 425 q 457 486 457 461 q 439 530 457 512 q 395 549 420 549 l 280 549 l 280 849 l 431 849 q 687 743 581 849 q 793 486 793 637 q 687 230 793 336 q 431 124 581 124 l 280 124 m 218 973 q 174 955 193 973 q 156 911 156 937 l 156 549 l 130 549 q 86 530 104 549 q 68 486 68 512 q 86 443 68 461 q 130 425 104 425 l 156 425 l 156 62 q 174 18 156 36 q 218 0 193 0 l 431 0 q 774 142 632 0 q 917 486 917 285 q 774 831 917 688 q 431 973 632 973 l 218 973 z "},"ñ":{"ha":914,"x_min":68,"x_max":846,"o":"m 384 1050 q 401 1061 395 1059 q 418 1055 407 1063 q 422 1051 419 1054 q 476 1023 451 1027 q 489 1023 482 1023 q 541 1037 515 1023 q 579 1067 557 1046 q 589 1093 589 1078 q 580 1118 590 1107 q 555 1128 570 1128 q 530 1118 540 1128 q 505 1099 513 1103 q 486 1094 495 1093 q 468 1105 481 1095 q 463 1110 464 1108 q 378 1128 420 1143 q 336 1101 357 1122 q 325 1076 325 1091 q 334 1051 324 1062 q 359 1040 344 1040 q 384 1050 374 1040 m 785 973 q 741 955 759 973 q 722 911 722 937 l 722 243 l 179 949 q 110 970 152 984 q 68 911 68 956 l 68 62 q 86 18 68 36 q 130 0 104 0 q 174 18 155 0 q 192 62 192 36 l 192 730 l 735 24 q 785 0 754 0 q 804 3 795 0 q 846 62 846 18 l 846 911 q 828 955 846 937 q 785 973 810 973 z "},"ò":{"ha":1109,"x_min":68,"x_max":1041,"o":"m 554 124 q 298 230 404 124 q 192 486 192 336 q 298 743 192 637 q 554 849 404 849 q 810 743 705 849 q 917 486 917 637 q 810 230 917 336 q 554 124 705 124 m 554 973 q 210 831 353 973 q 68 486 68 688 q 210 142 68 285 q 554 0 353 0 q 899 142 756 0 q 1041 486 1041 285 q 899 831 1041 688 q 554 973 756 973 m 554 1128 q 530 1138 544 1138 q 505 1128 515 1138 q 494 1103 494 1118 q 505 1078 494 1088 l 554 1027 q 579 1017 565 1017 q 604 1027 594 1017 q 615 1053 615 1038 q 604 1078 615 1067 l 554 1128 z "},"ó":{"ha":1109,"x_min":68,"x_max":1041,"o":"m 554 124 q 298 230 404 124 q 192 486 192 336 q 298 743 192 637 q 554 849 404 849 q 810 743 705 849 q 917 486 917 637 q 810 230 917 336 q 554 124 705 124 m 554 973 q 210 831 353 973 q 68 486 68 688 q 210 142 68 285 q 554 0 353 0 q 899 142 756 0 q 1041 486 1041 285 q 899 831 1041 688 q 554 973 756 973 m 530 1017 q 554 1027 544 1017 l 604 1078 q 615 1103 615 1088 q 604 1128 615 1118 q 579 1138 594 1138 q 554 1128 565 1138 l 505 1078 q 494 1053 494 1067 q 505 1027 494 1038 q 530 1017 515 1017 z "},"ô":{"ha":1109,"x_min":68,"x_max":1041,"o":"m 554 124 q 298 230 404 124 q 192 486 192 336 q 298 743 192 637 q 554 849 404 849 q 810 743 705 849 q 917 486 917 637 q 810 230 917 336 q 554 124 705 124 m 554 973 q 210 831 353 973 q 68 486 68 688 q 210 142 68 285 q 554 0 353 0 q 899 142 756 0 q 1041 486 1041 285 q 899 831 1041 688 q 554 973 756 973 m 575 1129 q 550 1138 564 1139 q 526 1128 536 1138 l 476 1078 q 466 1053 466 1067 q 476 1027 466 1038 q 501 1017 487 1017 q 526 1027 516 1017 l 553 1054 l 584 1026 q 608 1017 594 1017 q 634 1029 623 1017 q 643 1055 644 1040 q 631 1079 642 1069 l 575 1129 z "},"õ":{"ha":1109,"x_min":68,"x_max":1041,"o":"m 554 124 q 298 230 404 124 q 192 486 192 336 q 298 743 192 637 q 554 849 404 849 q 810 743 705 849 q 917 486 917 637 q 810 230 917 336 q 554 124 705 124 m 554 973 q 210 831 353 973 q 68 486 68 688 q 210 142 68 285 q 554 0 353 0 q 899 142 756 0 q 1041 486 1041 285 q 899 831 1041 688 q 554 973 756 973 m 481 1050 q 498 1061 492 1059 q 515 1055 504 1063 q 519 1051 517 1054 q 574 1023 549 1027 q 586 1023 580 1023 q 637 1037 613 1023 q 676 1067 654 1046 q 687 1093 687 1078 q 677 1118 687 1107 q 652 1128 667 1128 q 627 1118 637 1128 q 603 1099 611 1103 q 584 1094 592 1093 q 565 1105 578 1095 q 559 1109 562 1109 q 475 1128 518 1143 q 433 1101 454 1122 q 422 1076 422 1091 q 431 1051 421 1062 q 456 1040 441 1040 q 481 1050 471 1040 z "},"ö":{"ha":1109,"x_min":68,"x_max":1041,"o":"m 554 124 q 298 230 404 124 q 192 486 192 336 q 298 743 192 637 q 554 849 404 849 q 810 743 705 849 q 917 486 917 637 q 810 230 917 336 q 554 124 705 124 m 554 973 q 210 831 353 973 q 68 486 68 688 q 210 142 68 285 q 554 0 353 0 q 899 142 756 0 q 1041 486 1041 285 q 899 831 1041 688 q 554 973 756 973 m 650 1045 q 661 1070 661 1056 q 650 1095 661 1085 q 625 1106 640 1106 q 600 1095 610 1106 q 590 1070 590 1085 q 600 1045 590 1056 q 625 1035 610 1035 q 650 1045 640 1035 m 484 1035 q 509 1045 498 1035 q 519 1070 519 1056 q 509 1095 519 1085 q 484 1106 498 1106 q 458 1095 469 1106 q 448 1070 448 1085 q 458 1045 448 1056 q 484 1035 469 1035 z "},"÷":{"ha":560,"x_min":68,"x_max":492,"o":"m 324 264 q 342 308 342 283 q 324 352 342 334 q 280 370 306 370 q 237 352 254 370 q 218 308 218 334 q 237 264 218 282 q 280 246 254 246 q 324 264 306 246 m 324 618 q 342 662 342 636 q 324 706 342 688 q 280 724 306 724 q 237 706 254 724 q 218 662 218 688 q 237 618 218 636 q 280 600 254 600 q 324 618 306 600 m 492 485 q 474 529 492 511 q 431 547 456 547 l 130 547 q 86 529 104 547 q 68 485 68 511 q 86 441 68 459 q 130 423 104 423 l 431 423 q 474 441 456 423 q 492 485 492 459 z "},"ø":{"ha":1109,"x_min":68,"x_max":1041,"o":"m 917 486 q 810 230 917 336 q 554 124 705 124 q 346 190 439 124 l 850 695 q 917 486 917 602 m 192 486 q 298 743 192 637 q 554 849 404 849 q 763 783 669 849 l 258 278 q 192 486 192 372 m 1023 955 q 979 973 1004 973 q 935 955 954 973 l 852 871 q 554 973 721 973 q 210 831 353 973 q 68 486 68 688 q 170 189 68 320 l 86 106 q 68 62 68 87 q 86 18 68 36 q 130 0 104 0 q 174 18 155 0 l 257 102 q 554 0 388 0 q 899 142 756 0 q 1041 486 1041 285 q 939 784 1041 653 l 1023 867 q 1041 911 1041 886 q 1023 955 1041 937 z "},"ù":{"ha":879,"x_min":68,"x_max":811,"o":"m 465 1021 q 490 1031 479 1021 q 500 1056 500 1041 q 490 1081 500 1070 l 439 1131 q 414 1141 429 1141 q 389 1131 399 1141 q 379 1106 379 1120 q 389 1081 379 1091 l 439 1031 q 465 1021 450 1021 m 749 973 q 705 955 724 973 q 687 911 687 937 l 687 372 q 614 197 687 269 q 439 124 542 124 q 264 197 337 124 q 192 372 192 269 l 192 911 q 174 955 192 937 q 130 973 155 973 q 86 955 104 973 q 68 911 68 937 l 68 372 q 177 109 68 218 q 439 0 286 0 q 702 109 593 0 q 811 372 811 218 l 811 911 q 793 955 811 937 q 749 973 774 973 z "},"ú":{"ha":879,"x_min":68,"x_max":811,"o":"m 490 1081 q 500 1106 500 1091 q 490 1131 500 1120 q 465 1141 479 1141 q 439 1131 450 1141 l 389 1081 q 379 1056 379 1070 q 389 1031 379 1041 q 414 1021 399 1021 q 439 1031 429 1021 l 490 1081 m 749 973 q 705 955 724 973 q 687 911 687 937 l 687 372 q 614 197 687 269 q 439 124 542 124 q 264 197 337 124 q 192 372 192 269 l 192 911 q 174 955 192 937 q 130 973 155 973 q 86 955 104 973 q 68 911 68 937 l 68 372 q 177 109 68 218 q 439 0 286 0 q 702 109 593 0 q 811 372 811 218 l 811 911 q 793 955 811 937 q 749 973 774 973 z "},"û":{"ha":879,"x_min":68,"x_max":811,"o":"m 437 1057 l 469 1029 q 492 1021 479 1021 q 519 1032 509 1021 q 528 1058 528 1043 q 516 1082 527 1072 l 460 1132 q 435 1141 450 1141 q 411 1131 421 1141 l 361 1081 q 351 1056 351 1070 q 361 1031 351 1041 q 387 1021 372 1021 q 411 1031 401 1021 l 437 1057 m 749 973 q 705 955 724 973 q 687 911 687 937 l 687 372 q 614 197 687 269 q 439 124 542 124 q 264 197 337 124 q 192 372 192 269 l 192 911 q 174 955 192 937 q 130 973 155 973 q 86 955 104 973 q 68 911 68 937 l 68 372 q 177 109 68 218 q 439 0 286 0 q 702 109 593 0 q 811 372 811 218 l 811 911 q 793 955 811 937 q 749 973 774 973 z "},"ü":{"ha":879,"x_min":68,"x_max":811,"o":"m 535 1048 q 545 1074 545 1059 q 535 1099 545 1088 q 510 1109 525 1109 q 485 1099 496 1109 q 475 1074 475 1088 q 485 1048 475 1059 q 510 1038 496 1038 q 535 1048 525 1038 m 393 1048 q 404 1074 404 1059 q 393 1099 404 1088 q 369 1109 383 1109 q 344 1099 354 1109 q 333 1074 333 1088 q 344 1048 333 1059 q 369 1038 354 1038 q 393 1048 383 1038 m 749 973 q 705 955 724 973 q 687 911 687 937 l 687 372 q 614 197 687 269 q 439 124 542 124 q 264 197 337 124 q 192 372 192 269 l 192 911 q 174 955 192 937 q 130 973 155 973 q 86 955 104 973 q 68 911 68 937 l 68 372 q 177 109 68 218 q 439 0 286 0 q 702 109 593 0 q 811 372 811 218 l 811 911 q 793 955 811 937 q 749 973 774 973 z "},"ý":{"ha":940,"x_min":68,"x_max":872,"o":"m 520 1081 q 530 1106 530 1091 q 520 1131 530 1120 q 495 1141 510 1141 q 470 1131 480 1141 l 420 1081 q 410 1056 410 1070 q 420 1031 410 1041 q 445 1021 431 1021 q 470 1031 460 1021 l 520 1081 m 840 964 q 793 972 818 977 q 754 944 768 966 l 470 496 l 186 944 q 148 972 172 966 q 101 964 123 977 q 73 925 79 949 q 81 878 68 900 l 408 362 l 408 62 q 427 18 408 36 q 470 0 444 0 q 514 18 496 0 q 532 62 532 36 l 532 362 l 859 878 q 867 925 872 900 q 840 964 861 949 z "},"þ":{"ha":702,"x_min":68,"x_max":634,"o":"m 192 316 l 192 657 l 340 657 q 460 607 410 657 q 510 486 510 557 q 460 366 510 416 q 340 316 410 316 l 192 316 m 192 781 l 192 911 q 174 955 192 937 q 130 973 155 973 q 86 955 104 973 q 68 911 68 937 l 68 62 q 86 18 68 36 q 130 0 104 0 q 174 18 155 0 q 192 62 192 36 l 192 193 l 340 193 q 548 279 461 193 q 634 486 634 365 q 548 694 634 608 q 340 781 461 781 l 192 781 z "},"ÿ":{"ha":940,"x_min":68,"x_max":872,"o":"m 566 1048 q 576 1074 576 1059 q 566 1099 576 1088 q 541 1109 555 1109 q 516 1099 526 1109 q 505 1074 505 1088 q 516 1048 505 1059 q 541 1038 526 1038 q 566 1048 555 1038 m 425 1048 q 435 1074 435 1059 q 425 1099 435 1088 q 399 1109 414 1109 q 374 1099 385 1109 q 364 1074 364 1088 q 374 1048 364 1059 q 399 1038 385 1038 q 425 1048 414 1038 m 840 964 q 793 972 818 977 q 754 944 768 966 l 470 496 l 186 944 q 148 972 172 966 q 101 964 123 977 q 73 925 79 949 q 81 878 68 900 l 408 362 l 408 62 q 427 18 408 36 q 470 0 444 0 q 514 18 496 0 q 532 62 532 36 l 532 362 l 859 878 q 867 925 872 900 q 840 964 861 949 z "},"ı":{"ha":260,"x_min":68,"x_max":192,"o":"m 130 0 q 174 18 155 0 q 192 62 192 36 l 192 911 q 174 955 192 937 q 130 973 155 973 q 86 955 104 973 q 68 911 68 937 l 68 62 q 86 18 68 36 q 130 0 104 0 z "},"‘":{"ha":224,"x_min":68,"x_max":156,"o":"m 156 926 q 143 957 156 944 q 112 970 130 970 q 81 957 94 970 q 68 926 68 944 l 68 854 q 81 823 68 836 q 112 810 94 810 q 143 823 130 810 q 156 854 156 836 l 156 926 z "},"’":{"ha":224,"x_min":68,"x_max":156,"o":"m 156 926 q 143 957 156 944 q 112 970 130 970 q 81 957 94 970 q 68 926 68 944 l 68 854 q 81 823 68 836 q 112 810 94 810 q 143 823 130 810 q 156 854 156 836 l 156 926 z "},"“":{"ha":348,"x_min":68,"x_max":280,"o":"m 156 926 q 143 957 156 944 q 112 970 130 970 q 81 957 94 970 q 68 926 68 944 l 68 854 q 81 823 68 836 q 112 810 94 810 q 143 823 130 810 q 156 854 156 836 l 156 926 m 192 854 q 205 823 192 836 q 236 810 218 810 q 267 823 254 810 q 280 854 280 836 l 280 926 q 267 957 280 944 q 236 970 254 970 q 205 957 218 970 q 192 926 192 944 l 192 854 z "},"”":{"ha":348,"x_min":68,"x_max":280,"o":"m 156 926 q 143 957 156 944 q 112 970 130 970 q 81 957 94 970 q 68 926 68 944 l 68 854 q 81 823 68 836 q 112 810 94 810 q 143 823 130 810 q 156 854 156 836 l 156 926 m 192 854 q 205 823 192 836 q 236 810 218 810 q 267 823 254 810 q 280 854 280 836 l 280 926 q 267 957 280 944 q 236 970 254 970 q 205 957 218 970 q 192 926 192 944 l 192 854 z "},"‹":{"ha":437,"x_min":68,"x_max":370,"o":"m 353 684 q 310 705 336 703 q 265 689 284 706 l 88 530 q 68 484 68 511 q 88 437 68 456 l 265 278 q 307 262 283 262 q 353 283 334 262 q 368 328 370 302 q 348 370 367 353 l 222 484 l 348 597 q 368 640 367 614 q 353 684 370 665 z "},"›":{"ha":438,"x_min":68,"x_max":370,"o":"m 85 684 q 69 640 68 665 q 90 597 71 614 l 216 484 l 90 370 q 69 328 71 353 q 85 283 68 302 q 131 262 104 262 q 172 278 155 262 l 349 437 q 370 484 370 456 q 349 530 370 511 l 172 689 q 128 705 153 706 q 85 684 102 703 z "},"€":{"ha":755,"x_min":68,"x_max":687,"o":"m 625 849 q 669 867 651 849 q 687 911 687 886 q 669 955 687 937 q 625 973 651 973 q 281 831 424 973 q 162 637 198 747 l 130 637 q 86 618 104 637 q 68 575 68 601 q 86 531 68 549 q 130 513 104 513 l 139 513 q 138 486 138 499 q 142 425 138 456 l 130 425 q 86 406 104 425 q 68 363 68 389 q 86 319 68 337 q 130 301 104 301 l 175 301 q 281 142 212 212 q 625 0 424 0 q 669 18 651 0 q 687 62 687 36 q 669 106 687 87 q 625 124 651 124 q 444 173 528 124 q 314 301 362 220 l 519 301 q 563 319 545 301 q 581 363 581 337 q 563 406 581 389 q 519 425 545 425 l 268 425 q 262 486 262 455 q 263 513 262 500 l 519 513 q 563 531 545 513 q 581 575 581 549 q 563 618 581 601 q 519 637 545 637 l 295 637 q 427 790 339 732 q 625 849 517 849 z "},"−":{"ha":560,"x_min":68,"x_max":492,"o":"m 492 485 q 474 529 492 511 q 431 547 456 547 l 130 547 q 86 529 104 547 q 68 485 68 511 q 86 441 68 459 q 130 423 104 423 l 431 423 q 474 441 456 423 q 492 485 492 459 z "},"":{"ha":728,"x_min":0,"x_max":0,"o":""},"":{"ha":733,"x_min":0,"x_max":0,"o":""}}}
